<?xml version="1.0" encoding="utf-8"?>
<!-- Generator: Adobe Illustrator 27.9.0, SVG Export Plug-In . SVG Version: 6.00 Build 0)  -->
<svg version="1.1" id="Layer_1" xmlns="http://www.w3.org/2000/svg" xmlns:xlink="http://www.w3.org/1999/xlink" x="0px" y="0px"
	 viewBox="0 0 88.95 88.95" style="enable-background:new 0 0 88.95 88.95;" xml:space="preserve">
<style type="text/css">
	.st0{fill:none;stroke:#00793F;stroke-width:0.7126;stroke-miterlimit:10;}
	.st1{fill:#00793F;}
	.st2{fill:none;stroke:#00793F;stroke-width:0.75;stroke-miterlimit:10;}
	.st3{fill:none;stroke:#00793F;}
</style>
<g>
	<circle class="st0" cx="44.47" cy="44.47" r="38.87"/>
	<g>
		<path class="st1" d="M14.03,29.56c0.12,0.06,0.25,0.05,0.39-0.05c0.11-0.07,0.19-0.18,0.27-0.32c0.14-0.28,0.15-0.54,0.01-0.78
			l-1.82-0.94l-0.15,0.29l-0.37-0.19l0.79-1.52l0.37,0.19l-0.23,0.43l2.72,1.41l-0.41,0.79l-0.32-0.17
			c0.02,0.29-0.07,0.61-0.26,0.98c-0.17,0.32-0.37,0.57-0.59,0.73c-0.29,0.22-0.58,0.26-0.86,0.11c-0.19-0.1-0.32-0.25-0.38-0.46
			c-0.07-0.21-0.06-0.42,0-0.63c-0.09,0.18-0.22,0.31-0.38,0.36s-0.33,0.04-0.52-0.05c-0.19-0.1-0.31-0.24-0.37-0.43l-0.15,0.28
			l-0.37-0.19l0.28-0.54l0.14,0.11c-0.01-0.03-0.02-0.1-0.03-0.22c-0.02-0.09,0.02-0.24,0.13-0.45c0.1-0.2,0.21-0.3,0.33-0.29
			c0.15,0.01,0.25,0.02,0.28,0.04c0.14,0.07,0.25,0.22,0.33,0.44c0.03,0.13,0.04,0.2,0.04,0.21c-0.01,0.01-0.06,0.04-0.16,0.09
			c-0.13,0.1-0.21,0.15-0.21,0.15c0-0.04-0.02-0.11-0.05-0.18c0.01,0.01,0.02,0.01,0.02,0.01c0.01-0.02-0.01-0.05-0.06-0.1
			c-0.05-0.05-0.08-0.08-0.1-0.09c-0.07-0.02-0.11-0.01-0.13,0.03c-0.01,0.02-0.02,0.06-0.02,0.12c0,0.06,0,0.1,0.01,0.12
			c0.09,0.1,0.13,0.15,0.14,0.15l0.1,0.05l0.24-0.05c0.09-0.01,0.19-0.06,0.29-0.15c0.1-0.09,0.18-0.18,0.22-0.26
			c0.09-0.17,0.13-0.27,0.13-0.3l0.56,0.29c-0.07,0.08-0.13,0.17-0.17,0.24c-0.12,0.22-0.11,0.41,0.01,0.55
			C13.78,29.41,13.88,29.48,14.03,29.56z"/>
		<path class="st1" d="M15.28,28.4l0.22,1.08c0.04,0.36-0.02,0.72-0.17,1.08l-0.73-0.21c0.12-0.09,0.21-0.19,0.29-0.32
			c0.26-0.43,0.22-1.08-0.12-1.94L15.28,28.4z"/>
		<path class="st1" d="M15.88,28.37c0.3-0.51,0.62-0.66,0.95-0.46c0.36,0.22,0.34,0.68-0.08,1.38c-0.19,0.32-0.52,0.59-1,0.8
			l-0.18-0.56c0.15,0.04,0.31,0.01,0.48-0.08c0.17-0.09,0.3-0.21,0.38-0.35c0.1-0.18,0.09-0.31-0.05-0.39
			c-0.1-0.06-0.2-0.02-0.28,0.11c-0.09,0.16-0.1,0.32-0.02,0.49l-0.4-0.23C15.64,28.92,15.7,28.68,15.88,28.37z"/>
		<path class="st1" d="M15.27,25.1c-0.1,0.05-0.18,0.12-0.24,0.2c-0.21,0.33-0.07,0.65,0.4,0.96c0.16,0.11,0.33,0.17,0.49,0.19
			c0.21,0.03,0.36-0.03,0.45-0.18c0.08-0.12,0.1-0.26,0.08-0.44l-1.85-1.21l-1.02,1.56l-0.35-0.23l1.78-2.72l0.35,0.23l-0.27,0.41
			l2.57,1.68l-0.49,0.75l-0.23-0.15c0.02,0.13-0.05,0.31-0.2,0.54c-0.22,0.34-0.49,0.54-0.81,0.6c-0.32,0.06-0.65-0.01-1-0.22
			c-0.35-0.22-0.57-0.48-0.67-0.79s-0.03-0.63,0.19-0.97c0.08-0.12,0.17-0.23,0.28-0.33L15.27,25.1z"/>
		<path class="st1" d="M19.21,23.54l-1.63-1.31c-0.19,0.09-0.34,0.19-0.44,0.32c-0.16,0.2-0.2,0.41-0.12,0.63
			c0.06,0.2,0.2,0.38,0.41,0.54c0.52,0.41,0.93,0.43,1.22,0.06c0.08-0.09,0.12-0.16,0.13-0.2l0.25,0.58
			c-0.3,0.36-0.64,0.57-1.01,0.65c-0.39,0.08-0.77-0.02-1.14-0.29c-0.38-0.28-0.59-0.62-0.62-1c-0.03-0.38,0.1-0.76,0.4-1.14
			c0.14-0.17,0.3-0.33,0.5-0.48l-0.35-0.28l-1.43,1.78l-0.33-0.26l2.34-2.9l0.33,0.26l-0.31,0.39l2.39,1.92L19.21,23.54z"/>
		<path class="st1" d="M20.2,22.41l-2.24-2.1l-0.17,0.18l-0.31-0.29l1.12-1.2l0.31,0.29l-0.34,0.36l2.24,2.1L20.2,22.41z"/>
		<path class="st1" d="M21.44,16.92l-1.03,0.96c0.12-0.07,0.26-0.08,0.42-0.03c0.16,0.05,0.29,0.13,0.39,0.24
			c0.2,0.22,0.25,0.48,0.15,0.79c-0.08,0.23-0.24,0.47-0.47,0.7c0.17-0.08,0.32-0.11,0.47-0.08c0.03,0,0.16,0.05,0.4,0.12
			c0.45,0.15,0.75,0.15,0.91,0c0.11-0.1,0.21-0.29,0.29-0.58l0.27,0.57c-0.13,0.23-0.27,0.42-0.42,0.56
			c-0.28,0.26-0.62,0.38-1.02,0.36c-0.14-0.01-0.46-0.08-0.95-0.2c-0.33-0.09-0.55-0.08-0.66,0.03c-0.03,0.03-0.05,0.05-0.08,0.08
			l-0.45-0.48c0.31-0.09,0.54-0.21,0.71-0.37c0.15-0.14,0.23-0.29,0.24-0.46c0.01-0.17-0.05-0.33-0.19-0.48
			c-0.2-0.21-0.41-0.28-0.65-0.19l-0.87,0.8l-0.29-0.31l2.53-2.34L21.44,16.92z"/>
		<path class="st1" d="M23.58,19.18l-1.92-2.39l-0.2,0.16l-0.26-0.33l1.28-1.03l0.26,0.33l-0.39,0.31l1.92,2.39L23.58,19.18z"/>
		<path class="st1" d="M24.65,14.51l-0.38,0.22l-0.21-0.36l0.38-0.22L24.65,14.51z M26.89,13.71c0.11,0.18,0.15,0.36,0.12,0.53
			c-0.03,0.19-0.13,0.33-0.31,0.43c0.22-0.13,0.45-0.15,0.68-0.07s0.41,0.24,0.55,0.46c0.17,0.29,0.19,0.59,0.05,0.88
			c-0.12,0.26-0.33,0.48-0.64,0.66c-0.58,0.34-1.19,0.4-1.85,0.18l0.15-0.83c0.39,0.36,0.74,0.45,1.06,0.26
			c0.12-0.07,0.21-0.18,0.27-0.31c0.05-0.13,0.04-0.26-0.03-0.38c-0.22-0.37-0.51-0.45-0.87-0.24c-0.07,0.04-0.15,0.1-0.23,0.16
			l-0.26-0.45c0.06-0.01,0.12-0.03,0.18-0.07c0.14-0.09,0.24-0.2,0.29-0.34c0.05-0.14,0.04-0.28-0.03-0.42
			c-0.05-0.1-0.15-0.15-0.29-0.16c-0.14,0-0.26,0.02-0.36,0.08c-0.23,0.13-0.4,0.38-0.51,0.74l-0.32-0.54
			c0.15-0.27,0.38-0.5,0.7-0.69c0.36-0.21,0.67-0.31,0.92-0.29C26.51,13.34,26.75,13.47,26.89,13.71z M26.48,12.95l1.76-1.04
			l0.21,0.36l-0.43,0.26l1.55,2.64l-0.78,0.46l-0.79-1.35l-0.54,0.32l-0.24-0.41l0.54-0.32l-0.52-0.88l-0.54,0.32L26.48,12.95z"/>
		<path class="st1" d="M29.56,13.7l-0.68-1.57l-0.3,0.13l-0.17-0.38l3.26-1.42l0.17,0.39l-0.45,0.2l1.22,2.81l-0.78,0.34l-0.19-0.44
			c-0.12,0.24-0.31,0.41-0.57,0.52c-0.33,0.14-0.63,0.16-0.9,0.06C29.91,14.23,29.7,14.02,29.56,13.7z M31.4,13.15l-0.77-1.78
			l-0.93,0.41l0.65,1.5c0.15,0.35,0.39,0.46,0.71,0.33C31.29,13.5,31.4,13.35,31.4,13.15z"/>
		<path class="st1" d="M33.14,13.68l-1.01-2.89l-0.24,0.08l-0.14-0.4l1.55-0.54l0.14,0.4l-0.47,0.16l1.01,2.89L33.14,13.68z"/>
		<path class="st1" d="M37.59,14.45l-0.66,0.17l-0.51-1.98c-0.12,0.06-0.21,0.1-0.29,0.12c0.14,0.22,0.25,0.45,0.31,0.69
			c0.19,0.75-0.02,1.21-0.63,1.39c-0.24,0.07-0.45,0.06-0.64-0.03c-0.19-0.09-0.31-0.25-0.37-0.48c-0.06-0.24-0.03-0.45,0.1-0.61
			c0.12-0.15,0.31-0.25,0.56-0.3l0.24,0.25c-0.14,0.02-0.24,0.08-0.31,0.17s-0.08,0.21-0.04,0.34c0.07,0.26,0.2,0.37,0.38,0.31
			c0.2-0.06,0.23-0.33,0.11-0.83c-0.08-0.32-0.19-0.57-0.33-0.75c-0.56,0.09-0.98,0.04-1.27-0.13l0.02-0.82
			c0.02,0.06,0.15,0.16,0.41,0.3c0.31,0.17,0.6,0.22,0.87,0.15c0.23-0.06,0.44-0.21,0.61-0.46c0.07-0.09,0.08-0.2,0.05-0.32
			c-0.03-0.11-0.09-0.2-0.18-0.29c-0.09-0.08-0.19-0.11-0.3-0.08l-0.89,0.23c-0.23,0.06-0.43,0.06-0.6,0.01
			c-0.21-0.06-0.35-0.2-0.4-0.41c-0.12-0.44,0.12-0.74,0.72-0.9l0.98-0.25l-0.05-0.21l-2.01,0.52l-0.1-0.41l4.14-1.07l0.1,0.41
			l-1.26,0.33l0.16,0.62l-1.65,0.42c-0.14,0.04-0.2,0.13-0.16,0.27c0.04,0.14,0.14,0.19,0.3,0.15l1.14-0.29
			c0.23-0.06,0.44-0.03,0.63,0.09c0.19,0.12,0.31,0.3,0.38,0.53c0.09,0.34,0.04,0.63-0.15,0.88L37.59,14.45z M36.75,10.51
			c-0.02-0.09-0.01-0.18,0.04-0.26c0.05-0.08,0.12-0.13,0.21-0.16s0.18-0.01,0.26,0.03c0.08,0.05,0.13,0.11,0.16,0.21
			c0.05,0.19-0.03,0.32-0.24,0.37c-0.09,0.02-0.18,0.02-0.26-0.01C36.83,10.66,36.77,10.6,36.75,10.51z"/>
		<path class="st1" d="M41.26,9.06l0.19,0.51c-0.13-0.06-0.26-0.08-0.38-0.07c-0.14,0.01-0.24,0.08-0.31,0.2l0.85,0.83l-0.17-1.8
			L39.57,8.9l-0.04-0.42l3.28-0.3l0.04,0.42l-0.5,0.05l0.28,3.05l-0.89,0.08l-0.03-0.28c-0.09,0.09-0.28,0.15-0.58,0.17
			c-0.41,0.04-0.74-0.05-0.99-0.25s-0.39-0.51-0.43-0.92c-0.04-0.4,0.03-0.74,0.22-1.02s0.49-0.43,0.89-0.46
			C40.98,9.01,41.12,9.02,41.26,9.06z M40.61,10.08c-0.01,0.11-0.02,0.21-0.01,0.31c0.02,0.21,0.08,0.39,0.18,0.53
			c0.12,0.17,0.29,0.24,0.49,0.22c0.1-0.01,0.18-0.04,0.26-0.11L40.61,10.08z"/>
		<path class="st1" d="M43.17,11.69L43.1,8.63l-0.25,0.01l-0.01-0.42l1.64-0.04l0.01,0.42L44,8.61l0.07,3.06L43.17,11.69z"/>
		<path class="st1" d="M46.41,10.12c0.01-0.15-0.01-0.29-0.07-0.41c-0.07-0.15-0.17-0.24-0.31-0.25c-0.18-0.01-0.32,0.1-0.42,0.34
			c-0.07,0.17-0.12,0.37-0.13,0.58c-0.05,0.68,0.17,1.04,0.66,1.07c0.22,0.02,0.49-0.04,0.8-0.16l-0.22,0.6
			c-0.24,0.04-0.46,0.06-0.68,0.04c-0.46-0.03-0.82-0.18-1.11-0.45c-0.3-0.29-0.44-0.65-0.41-1.1c0.03-0.44,0.15-0.79,0.37-1.06
			c0.25-0.31,0.58-0.44,1-0.42c0.23,0.02,0.44,0.09,0.63,0.22c0.19,0.13,0.32,0.31,0.38,0.52c0.04-0.17,0.13-0.29,0.27-0.38
			c0.14-0.09,0.3-0.13,0.47-0.12c0.17,0.01,0.3,0.07,0.39,0.17l0.04-0.57l-3.49-0.24l0.03-0.42l4.92,0.34L49.5,8.86l-0.49-0.03
			l-0.21,3.06l-0.94-0.06l0.13-1.91c-0.08-0.08-0.19-0.13-0.32-0.14c-0.23-0.02-0.35,0.13-0.37,0.42l-0.05,0.7l-0.88-0.06
			L46.41,10.12z"/>
		<path class="st1" d="M54.06,10.36c-0.05,0.2-0.15,0.35-0.29,0.46c-0.15,0.11-0.33,0.14-0.52,0.08c0.25,0.07,0.42,0.21,0.53,0.44
			c0.1,0.22,0.12,0.46,0.06,0.71c-0.09,0.33-0.28,0.55-0.59,0.65c-0.27,0.1-0.57,0.1-0.92,0.01c-0.65-0.17-1.12-0.57-1.42-1.19
			l0.69-0.47c0.01,0.53,0.2,0.84,0.56,0.94c0.14,0.04,0.28,0.03,0.41-0.03c0.13-0.06,0.22-0.15,0.25-0.29
			c0.11-0.42-0.03-0.68-0.44-0.79c-0.08-0.02-0.17-0.04-0.28-0.05l0.13-0.5c0.05,0.04,0.11,0.06,0.17,0.08
			c0.16,0.04,0.31,0.03,0.45-0.03s0.23-0.17,0.28-0.32c0.03-0.11,0.01-0.21-0.09-0.32c-0.09-0.1-0.2-0.17-0.31-0.2
			c-0.25-0.07-0.55-0.02-0.89,0.15l0.16-0.6c0.29-0.08,0.62-0.08,0.98,0.02c0.41,0.11,0.69,0.26,0.85,0.45
			C54.06,9.83,54.14,10.09,54.06,10.36z M51.92,9.33L51.5,9.21l0.11-0.41l0.43,0.11L51.92,9.33z M54.32,9.53l1.97,0.53l-0.11,0.41
			l-0.49-0.13L54.9,13.3l-0.88-0.24l0.41-1.51l-0.61-0.16l0.12-0.46l0.61,0.16l0.26-0.99l-0.61-0.16L54.32,9.53z"/>
		<path class="st1" d="M57.87,13.89c-0.05,0.04-0.19,0.07-0.43,0.07c-0.3,0.01-0.59-0.03-0.85-0.14c-0.33-0.13-0.6-0.3-0.79-0.51
			c-0.26-0.27-0.33-0.55-0.21-0.85c0.08-0.2,0.22-0.34,0.42-0.43c0.2-0.09,0.41-0.11,0.63-0.06c-0.19-0.07-0.32-0.18-0.4-0.34
			s-0.08-0.33-0.01-0.52c0.08-0.2,0.2-0.33,0.39-0.41l-0.33-0.13l0.15-0.39l0.61,0.24l-0.08,0.2c0.29-0.04,0.47-0.03,0.54,0.01
			l0.11,0.44c0,0.01-0.06,0.03-0.17,0.06c-0.1,0.05-0.18,0.12-0.22,0.22c-0.06,0.13-0.05,0.25,0.01,0.36
			c0.06,0.11,0.16,0.19,0.29,0.24c0.1,0.04,0.19,0.05,0.28,0.04l-0.23,0.59c-0.09-0.06-0.18-0.11-0.26-0.14
			c-0.23-0.09-0.42-0.07-0.54,0.08c-0.04,0.04-0.09,0.15-0.15,0.32c-0.05,0.12,0,0.24,0.14,0.37c0.1,0.09,0.22,0.16,0.37,0.22
			c0.38,0.15,0.69,0.13,0.95-0.05L57.87,13.89z M58.28,11.35l0.15-0.39l0.55,0.21l-0.15,0.39L58.28,11.35z"/>
		<path class="st1" d="M62.78,13.05l-0.19,0.38l-0.44-0.22l-1.38,2.74L60,15.56l0.16-0.32c-0.27,0.05-0.55,0.01-0.83-0.13
			c-0.36-0.18-0.66-0.45-0.9-0.82c-0.24-0.36-0.37-0.75-0.4-1.15l0.37-0.73c0.21,0.29,0.42,0.49,0.64,0.6
			c0.18,0.09,0.36,0.11,0.53,0.06c0.17-0.05,0.3-0.17,0.4-0.35c0.06-0.12,0.09-0.25,0.07-0.38c-0.02-0.13-0.08-0.23-0.2-0.29
			l-1.09-0.55l0.19-0.38L62.78,13.05z M60.79,12.52c0.11,0.19,0.1,0.42-0.04,0.68c-0.15,0.3-0.39,0.48-0.7,0.54
			c-0.28,0.06-0.58,0-0.89-0.15c-0.08-0.04-0.17-0.09-0.26-0.15c0.02,0.24,0.1,0.48,0.23,0.71c0.13,0.24,0.3,0.4,0.5,0.5
			c0.27,0.14,0.55,0.12,0.84-0.05l0.9-1.79L60.79,12.52z"/>
		<path class="st1" d="M66.49,15.54l-0.23,0.35l-0.41-0.27l-1.71,2.55l-0.72-0.48l0.2-0.3c-0.28,0.02-0.54-0.06-0.8-0.23
			c-0.33-0.22-0.6-0.53-0.79-0.92s-0.28-0.79-0.25-1.19l0.46-0.68c0.17,0.31,0.36,0.54,0.56,0.67c0.17,0.11,0.34,0.16,0.52,0.13
			c0.18-0.03,0.32-0.13,0.44-0.3c0.08-0.12,0.12-0.24,0.12-0.37c0-0.13-0.06-0.24-0.16-0.31l-1.01-0.68l0.23-0.35L66.49,15.54z
			 M64.59,14.77c0.08,0.2,0.04,0.43-0.12,0.67c-0.19,0.28-0.44,0.43-0.76,0.45c-0.29,0.02-0.58-0.07-0.87-0.26
			c-0.08-0.05-0.16-0.11-0.24-0.19c-0.01,0.24,0.04,0.49,0.14,0.74c0.1,0.25,0.25,0.44,0.44,0.56c0.25,0.17,0.53,0.19,0.84,0.06
			l1.11-1.66L64.59,14.77z"/>
		<path class="st1" d="M67.25,17.75c0.21,0.4,0.18,0.76-0.1,1.08c-0.53,0.59-1.07,0.66-1.64,0.19c-0.29-0.23-0.44-0.51-0.46-0.83
			c-0.02-0.32,0.08-0.62,0.33-0.9c0.3-0.35,0.65-0.51,1.05-0.47c0.35,0.03,0.71,0.2,1.07,0.52c0.25,0.22,0.48,0.49,0.67,0.82
			l0.31-0.36l-2.13-1.84l0.27-0.32l3.19,2.75l-0.27,0.32l-0.38-0.32l-2,2.32l-0.68-0.58l1.35-1.57
			C67.73,18.31,67.54,18.05,67.25,17.75z M66.69,17.76l0.49,0.01c-0.33-0.27-0.67-0.21-1.04,0.19c-0.09,0.1-0.16,0.21-0.2,0.34
			c-0.05,0.16-0.04,0.28,0.05,0.36c0.16,0.13,0.36,0.04,0.61-0.27c0.23-0.28,0.29-0.47,0.18-0.57
			C66.75,17.79,66.72,17.77,66.69,17.76z"/>
		<path class="st1" d="M71.45,22.1c-0.02-0.14-0.07-0.25-0.13-0.33c-0.11-0.14-0.28-0.18-0.49-0.13c-0.16,0.04-0.32,0.13-0.48,0.26
			c-0.16,0.13-0.28,0.27-0.34,0.43c-0.09,0.19-0.07,0.36,0.04,0.5c0.07,0.09,0.18,0.16,0.3,0.2l1.78-1.42l-1.18-1.47l0.33-0.26
			l3.18,3.97l-0.33,0.26l-1.43-1.79l-0.34,0.28c0.24,0.08,0.44,0.22,0.6,0.43c0.23,0.29,0.33,0.6,0.28,0.93s-0.21,0.61-0.51,0.84
			c-0.32,0.25-0.65,0.35-1.01,0.32c-0.35-0.04-0.66-0.21-0.91-0.53c-0.05-0.06-0.09-0.13-0.13-0.2l0.36-0.52
			c-0.01,0.14,0.01,0.25,0.09,0.35c0.11,0.14,0.27,0.17,0.49,0.11c0.16-0.05,0.32-0.14,0.47-0.26c0.38-0.31,0.46-0.61,0.24-0.9
			c-0.09-0.11-0.21-0.2-0.35-0.25l-1.67,1.34l-0.57-0.71l0.22-0.18c-0.09-0.02-0.21-0.12-0.37-0.31c-0.26-0.32-0.38-0.65-0.38-0.98
			c0.01-0.36,0.17-0.66,0.49-0.92c0.32-0.26,0.64-0.38,0.96-0.37c0.34,0.01,0.64,0.17,0.89,0.49c0.09,0.11,0.16,0.23,0.22,0.37
			L71.45,22.1z"/>
		<path class="st1" d="M73.79,20.94c0.15,0.1,0.28,0.24,0.41,0.42c0.21,0.31,0.29,0.6,0.24,0.88l-0.27,1.35l-0.59-0.87l0.19-0.77
			c0.03-0.26,0-0.46-0.11-0.61c-0.05-0.08-0.12-0.13-0.2-0.17L73.79,20.94z"/>
		<path class="st1" d="M74.9,27.51c0.06-0.33-0.01-0.67-0.24-1.02c-0.06-0.1-0.13-0.19-0.2-0.27c0.08,0.45-0.05,0.78-0.41,1
			c-0.68,0.41-1.22,0.31-1.63-0.3c-0.2-0.31-0.27-0.62-0.2-0.93c0.07-0.32,0.26-0.57,0.58-0.77c0.51-0.32,1.03-0.28,1.55,0.12
			c0.23,0.18,0.42,0.4,0.59,0.67c0.24,0.38,0.37,0.78,0.4,1.23L74.9,27.51z M73.93,26.05l0.47,0.15c-0.23-0.35-0.58-0.4-1.05-0.13
			c-0.12,0.07-0.21,0.16-0.29,0.26c-0.1,0.14-0.12,0.26-0.06,0.36c0.11,0.17,0.33,0.15,0.66-0.08c0.3-0.2,0.42-0.36,0.34-0.49
			C73.98,26.1,73.96,26.08,73.93,26.05z M74.13,24.24l0.36-0.22l1.72,2.75l-0.36,0.22L74.13,24.24z"/>
		<path class="st1" d="M74.73,30.56c-0.09,0.19-0.06,0.4,0.09,0.63l-0.91-0.27c0.02-0.12,0.03-0.25,0.04-0.37
			c0.03-0.1,0.13-0.21,0.28-0.32c-0.14-0.18-0.25-0.36-0.34-0.54c-0.21-0.41-0.27-0.8-0.19-1.19c0.08-0.43,0.33-0.73,0.74-0.9
			c0.45-0.19,0.86-0.14,1.25,0.16c0.31,0.23,0.57,0.59,0.79,1.08l0.23-0.11l-0.95-1.9l0.38-0.19l1.66,3.32l-0.38,0.19l-0.31-0.62
			l-0.68,0.34c-0.08-0.25-0.16-0.47-0.26-0.66c-0.15-0.3-0.33-0.53-0.53-0.68c-0.26-0.2-0.53-0.23-0.8-0.1
			c-0.23,0.11-0.38,0.28-0.46,0.52s-0.06,0.47,0.05,0.7c0.02,0.05,0.05,0.09,0.08,0.13c0.06-0.16,0.16-0.28,0.32-0.36
			c0.18-0.09,0.36-0.11,0.55-0.05c0.18,0.06,0.32,0.18,0.4,0.36c0.08,0.17,0.09,0.33,0.03,0.48c-0.05,0.15-0.16,0.26-0.33,0.34
			C75.21,30.69,74.96,30.69,74.73,30.56z"/>
		<path class="st1" d="M74.64,30.32l-1-0.46c-0.31-0.18-0.57-0.44-0.77-0.77l0.6-0.47c0,0.15,0.03,0.29,0.09,0.42
			c0.2,0.46,0.75,0.81,1.64,1.04L74.64,30.32z"/>
	</g>
	<g>
		<g>
			<path class="st1" d="M8.84,45.82c-0.18,0-0.34-0.03-0.48-0.09C8.22,45.67,8.1,45.58,8,45.47c-0.1-0.11-0.17-0.25-0.23-0.41
				C7.73,44.9,7.7,44.74,7.7,44.55c0-0.13,0.01-0.25,0.03-0.35c0.02-0.11,0.04-0.21,0.07-0.29s0.06-0.16,0.09-0.22
				s0.06-0.1,0.08-0.12s0.05-0.04,0.09-0.05c0.04-0.01,0.08-0.02,0.15-0.02c0.04,0,0.08,0,0.11,0s0.05,0.01,0.07,0.02
				c0.02,0.01,0.03,0.02,0.04,0.03c0.01,0.01,0.01,0.03,0.01,0.04c0,0.03-0.02,0.07-0.05,0.12c-0.03,0.05-0.07,0.12-0.11,0.19
				s-0.07,0.17-0.1,0.28c-0.03,0.11-0.05,0.24-0.05,0.38c0,0.11,0.02,0.21,0.05,0.3s0.07,0.17,0.13,0.23
				c0.05,0.06,0.12,0.11,0.2,0.15c0.08,0.03,0.17,0.05,0.27,0.05c0.11,0,0.2-0.03,0.27-0.08c0.08-0.05,0.14-0.12,0.2-0.2
				c0.06-0.08,0.11-0.17,0.15-0.28c0.05-0.1,0.09-0.21,0.14-0.32c0.05-0.11,0.1-0.21,0.16-0.32c0.06-0.1,0.13-0.19,0.21-0.28
				c0.08-0.08,0.18-0.15,0.29-0.2c0.11-0.05,0.24-0.08,0.4-0.08c0.16,0,0.3,0.02,0.42,0.08s0.23,0.13,0.32,0.24
				c0.09,0.1,0.15,0.22,0.2,0.36c0.05,0.14,0.07,0.29,0.07,0.46c0,0.08,0,0.17-0.02,0.25c-0.01,0.08-0.03,0.17-0.05,0.24
				c-0.02,0.08-0.05,0.14-0.08,0.2s-0.05,0.1-0.07,0.12c-0.02,0.02-0.03,0.03-0.04,0.04c-0.01,0.01-0.02,0.01-0.04,0.02
				c-0.02,0-0.04,0.01-0.06,0.01s-0.05,0-0.09,0c-0.04,0-0.07,0-0.09,0s-0.05-0.01-0.07-0.01c-0.02-0.01-0.03-0.01-0.04-0.02
				s-0.01-0.02-0.01-0.04c0-0.02,0.01-0.06,0.04-0.1c0.03-0.05,0.06-0.1,0.09-0.17s0.06-0.15,0.09-0.24s0.04-0.19,0.04-0.31
				c0-0.11-0.02-0.2-0.05-0.27c-0.03-0.08-0.07-0.14-0.12-0.19c-0.05-0.05-0.1-0.09-0.17-0.11c-0.06-0.02-0.13-0.04-0.21-0.04
				c-0.11,0-0.2,0.03-0.27,0.08c-0.08,0.05-0.14,0.12-0.2,0.2c-0.06,0.08-0.11,0.18-0.16,0.28c-0.05,0.1-0.09,0.21-0.14,0.32
				c-0.05,0.11-0.1,0.21-0.16,0.32c-0.06,0.1-0.13,0.2-0.21,0.28c-0.08,0.08-0.17,0.15-0.28,0.2C9.12,45.8,8.99,45.82,8.84,45.82z"
				/>
			<path class="st1" d="M8.09,49.07c-0.02,0-0.03,0-0.04-0.01c-0.01-0.01-0.02-0.02-0.03-0.04S8,48.98,8,48.95
				c-0.01-0.03-0.01-0.07-0.02-0.12c0-0.05-0.01-0.09-0.01-0.12c0-0.03,0-0.06,0.01-0.07C7.99,48.62,8,48.61,8.01,48.6
				c0.01-0.01,0.02-0.01,0.04-0.02l1.54-0.14c0.15-0.01,0.27-0.04,0.36-0.07c0.09-0.03,0.17-0.07,0.23-0.12
				c0.06-0.05,0.11-0.11,0.14-0.19c0.03-0.07,0.04-0.16,0.03-0.25c-0.01-0.12-0.07-0.24-0.16-0.35c-0.1-0.11-0.23-0.23-0.41-0.34
				l-1.83,0.17c-0.02,0-0.03,0-0.04-0.01c-0.01-0.01-0.02-0.02-0.03-0.04s-0.02-0.04-0.02-0.07c-0.01-0.03-0.01-0.07-0.02-0.12
				c0-0.05-0.01-0.09-0.01-0.12c0-0.03,0-0.06,0.01-0.08c0.01-0.02,0.01-0.03,0.02-0.04c0.01-0.01,0.02-0.01,0.04-0.01l3.9-0.36
				c0.02,0,0.03,0,0.04,0.01c0.01,0.01,0.02,0.02,0.03,0.04c0.01,0.02,0.02,0.04,0.02,0.07s0.01,0.07,0.02,0.12
				c0,0.05,0.01,0.09,0.01,0.12c0,0.03,0,0.06-0.01,0.07c-0.01,0.02-0.01,0.03-0.03,0.04c-0.01,0.01-0.02,0.01-0.04,0.02l-1.57,0.15
				c0.16,0.12,0.28,0.25,0.36,0.39c0.08,0.13,0.13,0.27,0.15,0.41c0.02,0.17,0,0.33-0.05,0.45c-0.05,0.12-0.12,0.23-0.21,0.31
				s-0.2,0.15-0.33,0.19c-0.13,0.04-0.29,0.08-0.48,0.09L8.09,49.07z"/>
			<path class="st1" d="M8.36,50.72c-0.02,0-0.03,0-0.04,0c-0.01-0.01-0.02-0.02-0.03-0.03c-0.01-0.02-0.02-0.04-0.03-0.07
				c-0.01-0.03-0.02-0.07-0.03-0.12c-0.01-0.05-0.01-0.08-0.01-0.12c0-0.03,0-0.06,0-0.08c0-0.02,0.01-0.03,0.02-0.04
				c0.01-0.01,0.02-0.01,0.04-0.02l2.6-0.43c0.01,0,0.03,0,0.04,0s0.02,0.02,0.04,0.03s0.02,0.04,0.03,0.07s0.02,0.07,0.02,0.11
				c0.01,0.05,0.01,0.09,0.01,0.12c0,0.03,0,0.06-0.01,0.08c0,0.02-0.01,0.03-0.02,0.04c-0.01,0.01-0.02,0.02-0.04,0.02L8.36,50.72z
				 M11.85,50.2c-0.11,0.02-0.19,0.01-0.24-0.03c-0.05-0.04-0.08-0.11-0.1-0.22c-0.02-0.11-0.01-0.19,0.02-0.24
				c0.03-0.05,0.1-0.08,0.21-0.1c0.11-0.02,0.19-0.01,0.24,0.03s0.08,0.11,0.1,0.22c0.02,0.11,0.01,0.19-0.02,0.24
				C12.03,50.15,11.96,50.18,11.85,50.2z"/>
			<path class="st1" d="M9.09,54.11c-0.02,0-0.03,0-0.04,0s-0.02-0.02-0.04-0.03C9,54.06,8.99,54.04,8.98,54.01
				c-0.01-0.03-0.02-0.07-0.03-0.11c-0.01-0.05-0.02-0.09-0.02-0.12s0-0.06,0-0.08c0-0.02,0.01-0.03,0.02-0.04
				c0.01-0.01,0.02-0.02,0.04-0.02l1.5-0.36c0.15-0.04,0.26-0.07,0.35-0.12c0.08-0.04,0.15-0.1,0.21-0.15s0.09-0.13,0.11-0.2
				c0.02-0.08,0.02-0.16-0.01-0.25c-0.03-0.12-0.1-0.23-0.21-0.32c-0.11-0.1-0.26-0.19-0.46-0.28l-1.79,0.43c-0.02,0-0.03,0-0.04,0
				c-0.01-0.01-0.02-0.02-0.04-0.03s-0.02-0.04-0.03-0.07c-0.01-0.03-0.02-0.07-0.03-0.12c-0.01-0.05-0.02-0.08-0.02-0.12
				s0-0.06,0-0.08c0-0.02,0.01-0.03,0.02-0.04c0.01-0.01,0.02-0.02,0.04-0.02l2.56-0.61c0.02,0,0.03,0,0.04,0
				c0.01,0,0.02,0.01,0.04,0.03c0.01,0.01,0.02,0.04,0.03,0.06c0.01,0.03,0.02,0.06,0.03,0.1c0.01,0.04,0.02,0.08,0.02,0.1
				c0,0.03,0,0.05,0,0.07s-0.01,0.03-0.02,0.04s-0.02,0.02-0.04,0.02l-0.34,0.08c0.2,0.11,0.35,0.22,0.46,0.35
				c0.11,0.13,0.18,0.26,0.22,0.41c0.04,0.17,0.05,0.32,0.02,0.45c-0.03,0.13-0.08,0.24-0.16,0.34c-0.08,0.1-0.18,0.17-0.3,0.24
				s-0.28,0.12-0.46,0.16L9.09,54.11z"/>
			<path class="st1" d="M9.57,55.68c-0.02,0-0.03,0-0.04,0c-0.01,0-0.03-0.01-0.04-0.03c-0.01-0.01-0.03-0.04-0.04-0.06
				c-0.01-0.03-0.03-0.07-0.04-0.11c-0.01-0.04-0.02-0.08-0.03-0.11c-0.01-0.03-0.01-0.06-0.01-0.08s0.01-0.04,0.02-0.04
				s0.02-0.02,0.03-0.02l2.52-0.79c0.01,0,0.03,0,0.04,0s0.03,0.01,0.04,0.03c0.01,0.02,0.03,0.04,0.04,0.07
				c0.01,0.03,0.03,0.07,0.04,0.11c0.01,0.05,0.02,0.09,0.03,0.12c0.01,0.03,0.01,0.06,0.01,0.08c0,0.02-0.01,0.03-0.02,0.05
				c-0.01,0.01-0.02,0.02-0.03,0.02L9.57,55.68z M12.95,54.68c-0.11,0.03-0.19,0.04-0.24,0.01c-0.05-0.03-0.1-0.1-0.13-0.21
				c-0.03-0.11-0.04-0.19-0.01-0.24c0.03-0.05,0.09-0.09,0.2-0.13c0.11-0.03,0.19-0.04,0.24-0.01c0.05,0.03,0.1,0.1,0.13,0.21
				c0.03,0.11,0.04,0.19,0.01,0.24C13.13,54.6,13.06,54.65,12.95,54.68z"/>
			<path class="st1" d="M10.77,58.92c-0.01,0.01-0.03,0.01-0.04,0c-0.01,0-0.03-0.01-0.04-0.02c-0.01-0.01-0.03-0.03-0.04-0.06
				s-0.03-0.06-0.05-0.11c-0.02-0.05-0.03-0.08-0.04-0.11c-0.01-0.03-0.01-0.06-0.01-0.07c0-0.02,0-0.03,0.01-0.05
				c0.01-0.01,0.02-0.02,0.03-0.03l1.44-0.56c0.14-0.05,0.25-0.11,0.33-0.17c0.08-0.06,0.14-0.12,0.18-0.18s0.07-0.14,0.08-0.22
				c0.01-0.08-0.01-0.16-0.04-0.25c-0.04-0.11-0.13-0.21-0.25-0.29c-0.12-0.08-0.29-0.15-0.49-0.22l-1.72,0.67
				c-0.01,0.01-0.03,0.01-0.04,0c-0.01,0-0.03-0.01-0.04-0.02c-0.01-0.01-0.03-0.03-0.04-0.06c-0.02-0.03-0.03-0.06-0.05-0.11
				c-0.02-0.04-0.03-0.08-0.04-0.11c-0.01-0.03-0.01-0.06-0.01-0.08s0-0.04,0.01-0.05c0.01-0.01,0.02-0.02,0.03-0.02l2.45-0.96
				c0.01-0.01,0.03-0.01,0.04-0.01c0.01,0,0.03,0.01,0.04,0.02s0.03,0.03,0.04,0.06s0.03,0.06,0.04,0.1
				c0.02,0.04,0.03,0.07,0.04,0.1c0.01,0.03,0.01,0.05,0.01,0.07c0,0.02-0.01,0.03-0.02,0.04s-0.02,0.02-0.03,0.02l-0.32,0.13
				c0.21,0.08,0.38,0.17,0.5,0.28c0.13,0.11,0.22,0.23,0.27,0.37c0.06,0.16,0.09,0.31,0.08,0.45c-0.01,0.13-0.05,0.25-0.12,0.36
				s-0.15,0.2-0.27,0.28c-0.11,0.08-0.26,0.15-0.43,0.22L10.77,58.92z"/>
			<path class="st1" d="M14.52,60.89c-0.06,0.03-0.11,0.04-0.15,0.04c-0.04,0-0.06-0.02-0.07-0.04l-0.17-0.34
				c-0.03,0.09-0.08,0.17-0.14,0.23c-0.06,0.06-0.14,0.11-0.22,0.16c-0.14,0.07-0.27,0.11-0.39,0.12c-0.13,0.01-0.25-0.01-0.36-0.05
				c-0.11-0.04-0.22-0.11-0.31-0.21c-0.09-0.09-0.18-0.21-0.24-0.34c-0.05-0.1-0.08-0.19-0.1-0.29c-0.02-0.1-0.02-0.18,0-0.25
				c-0.05-0.02-0.1-0.02-0.15-0.02s-0.1,0.01-0.15,0.04c-0.06,0.03-0.1,0.08-0.11,0.16c-0.01,0.08,0,0.16,0.05,0.26l0.28,0.63
				c0.06,0.12,0.09,0.23,0.11,0.35c0.02,0.11,0.02,0.22,0,0.32c-0.02,0.1-0.05,0.19-0.11,0.27c-0.06,0.08-0.14,0.15-0.24,0.2
				c-0.11,0.05-0.22,0.08-0.34,0.09c-0.12,0-0.24-0.02-0.36-0.08s-0.24-0.15-0.35-0.27c-0.12-0.12-0.22-0.28-0.32-0.48
				c-0.1-0.19-0.16-0.36-0.2-0.51c-0.03-0.15-0.05-0.28-0.03-0.4c0.01-0.11,0.05-0.21,0.11-0.29c0.06-0.08,0.13-0.14,0.22-0.18
				c0.06-0.03,0.12-0.05,0.18-0.06s0.12-0.02,0.19-0.01c0.06,0,0.13,0.02,0.19,0.04s0.13,0.05,0.21,0.08c0-0.11,0.02-0.2,0.07-0.27
				c0.05-0.07,0.11-0.13,0.18-0.17c0.11-0.05,0.21-0.08,0.32-0.08s0.21,0.02,0.31,0.05c0.04-0.09,0.09-0.17,0.15-0.24
				s0.16-0.14,0.27-0.2c0.13-0.07,0.27-0.11,0.4-0.11c0.13-0.01,0.25,0.01,0.36,0.05c0.11,0.04,0.22,0.11,0.31,0.2
				c0.1,0.09,0.18,0.21,0.24,0.34c0.04,0.07,0.07,0.14,0.09,0.21s0.04,0.13,0.05,0.19l0.36,0.71c0.02,0.03,0.01,0.06-0.01,0.09
				C14.61,60.83,14.57,60.86,14.52,60.89z M11.8,61.68c0.1-0.05,0.16-0.13,0.17-0.24c0.01-0.11-0.01-0.24-0.08-0.38l-0.29-0.62
				c-0.07-0.03-0.14-0.06-0.19-0.08c-0.06-0.02-0.11-0.03-0.16-0.03s-0.09,0-0.13,0.01c-0.04,0.01-0.08,0.02-0.11,0.04
				c-0.11,0.06-0.17,0.16-0.17,0.3c0,0.14,0.05,0.32,0.15,0.53c0.07,0.13,0.13,0.23,0.2,0.31c0.07,0.08,0.14,0.13,0.21,0.16
				c0.07,0.03,0.14,0.05,0.2,0.04C11.68,61.72,11.74,61.71,11.8,61.68z M13.56,60.52c0.16-0.08,0.26-0.19,0.31-0.32
				s0.03-0.28-0.05-0.44c-0.04-0.08-0.09-0.15-0.15-0.2s-0.12-0.08-0.19-0.1c-0.07-0.02-0.14-0.02-0.21-0.01
				c-0.07,0.01-0.15,0.04-0.22,0.07c-0.16,0.08-0.26,0.18-0.3,0.32c-0.04,0.13-0.03,0.28,0.05,0.44c0.04,0.09,0.09,0.15,0.15,0.2
				s0.12,0.08,0.19,0.1c0.07,0.02,0.14,0.02,0.21,0.01C13.42,60.58,13.49,60.56,13.56,60.52z"/>
			<path class="st1" d="M15.56,65.37c-0.15,0.1-0.3,0.16-0.45,0.18c-0.15,0.02-0.3,0.01-0.45-0.03c-0.15-0.04-0.28-0.11-0.41-0.22
				s-0.24-0.23-0.35-0.38c-0.07-0.11-0.13-0.21-0.17-0.31c-0.04-0.1-0.08-0.2-0.1-0.28c-0.02-0.09-0.03-0.17-0.04-0.23
				c0-0.07,0-0.12,0-0.15s0.02-0.06,0.05-0.09c0.02-0.03,0.06-0.06,0.11-0.09c0.04-0.02,0.07-0.04,0.09-0.05
				c0.03-0.01,0.05-0.02,0.07-0.02c0.02,0,0.03,0,0.05,0s0.02,0.02,0.03,0.03c0.02,0.02,0.02,0.06,0.02,0.12
				c0,0.06,0.01,0.13,0.02,0.22c0.01,0.09,0.03,0.19,0.07,0.3c0.03,0.11,0.09,0.23,0.17,0.35c0.06,0.09,0.13,0.17,0.2,0.22
				c0.08,0.06,0.15,0.1,0.23,0.12s0.16,0.03,0.25,0.01s0.17-0.05,0.25-0.11c0.09-0.06,0.15-0.13,0.19-0.21s0.06-0.17,0.06-0.27
				s0-0.2-0.02-0.32c-0.02-0.11-0.04-0.23-0.05-0.34c-0.02-0.12-0.03-0.23-0.04-0.35c-0.01-0.12,0-0.23,0.02-0.35
				s0.07-0.22,0.13-0.32c0.06-0.1,0.16-0.2,0.29-0.28c0.13-0.09,0.26-0.14,0.4-0.17c0.13-0.02,0.27-0.01,0.39,0.02
				s0.25,0.1,0.36,0.2s0.22,0.21,0.31,0.34c0.05,0.07,0.09,0.14,0.12,0.22c0.04,0.08,0.06,0.16,0.09,0.23
				c0.02,0.08,0.04,0.15,0.04,0.21c0.01,0.07,0.01,0.11,0,0.14c0,0.03-0.01,0.04-0.02,0.05c-0.01,0.01-0.01,0.02-0.03,0.04
				c-0.01,0.01-0.03,0.03-0.04,0.04c-0.02,0.01-0.04,0.03-0.07,0.05c-0.03,0.02-0.06,0.04-0.08,0.05c-0.02,0.01-0.05,0.02-0.06,0.03
				c-0.02,0.01-0.03,0.01-0.05,0c-0.01,0-0.02-0.01-0.03-0.02c-0.01-0.02-0.02-0.05-0.02-0.11c0-0.05-0.01-0.12-0.02-0.19
				s-0.03-0.16-0.05-0.25c-0.03-0.09-0.07-0.18-0.14-0.28c-0.06-0.09-0.12-0.16-0.19-0.2c-0.07-0.05-0.13-0.08-0.2-0.1
				c-0.07-0.02-0.13-0.02-0.2,0c-0.07,0.02-0.13,0.04-0.19,0.08c-0.09,0.06-0.15,0.13-0.19,0.21c-0.04,0.08-0.06,0.17-0.06,0.27
				c0,0.1,0,0.21,0.02,0.32c0.02,0.11,0.04,0.23,0.05,0.35c0.02,0.12,0.03,0.23,0.04,0.35c0.01,0.12,0,0.23-0.02,0.35
				c-0.02,0.11-0.06,0.22-0.13,0.32S15.68,65.29,15.56,65.37z"/>
			<path class="st1" d="M16.32,67.64c-0.04,0.04-0.08,0.06-0.11,0.07c-0.03,0.01-0.06,0.02-0.08,0.02c-0.02,0-0.05-0.01-0.08-0.03
				c-0.03-0.02-0.06-0.04-0.09-0.06c-0.03-0.03-0.06-0.05-0.1-0.09c-0.03-0.03-0.06-0.06-0.09-0.1c-0.08-0.11-0.14-0.21-0.17-0.31
				c-0.03-0.1-0.04-0.2-0.02-0.29c0.02-0.09,0.06-0.19,0.13-0.28c0.07-0.09,0.17-0.19,0.29-0.28l1.21-0.95l-0.23-0.29
				c-0.02-0.02-0.02-0.05-0.01-0.08s0.05-0.07,0.1-0.11c0.03-0.02,0.06-0.04,0.08-0.05c0.02-0.01,0.04-0.02,0.06-0.02
				c0.02,0,0.03,0,0.05,0c0.01,0.01,0.02,0.02,0.03,0.03l0.23,0.29l0.49-0.39c0.01-0.01,0.02-0.01,0.04-0.02
				c0.01,0,0.03,0,0.05,0.01c0.02,0.01,0.04,0.02,0.06,0.05c0.02,0.02,0.05,0.05,0.08,0.09c0.03,0.04,0.05,0.07,0.07,0.1
				c0.02,0.03,0.03,0.05,0.03,0.07c0,0.02,0,0.04,0,0.05c0,0.01-0.01,0.02-0.02,0.03l-0.49,0.39l0.42,0.53
				c0.01,0.01,0.02,0.03,0.02,0.04c0,0.01,0,0.03-0.01,0.05c-0.01,0.02-0.02,0.04-0.04,0.05c-0.02,0.02-0.04,0.04-0.07,0.06
				c-0.06,0.04-0.1,0.07-0.14,0.07c-0.04,0.01-0.06,0-0.08-0.03l-0.42-0.53l-1.16,0.91c-0.14,0.11-0.23,0.22-0.27,0.32
				c-0.04,0.1-0.02,0.2,0.07,0.31c0.03,0.04,0.06,0.06,0.08,0.09c0.03,0.02,0.06,0.04,0.08,0.06c0.02,0.02,0.05,0.03,0.07,0.04
				s0.03,0.02,0.04,0.03c0.01,0.01,0.01,0.02,0.01,0.03c0,0.01,0,0.02-0.01,0.03c-0.01,0.01-0.02,0.03-0.04,0.04
				C16.36,67.6,16.34,67.62,16.32,67.64z"/>
			<path class="st1" d="M18.05,69.89c-0.02,0.02-0.04,0.02-0.05,0.02c-0.02,0-0.04-0.01-0.06-0.03c-0.02-0.02-0.05-0.04-0.09-0.08
				c-0.03-0.04-0.06-0.07-0.08-0.1s-0.02-0.05-0.02-0.07s0.01-0.04,0.03-0.05l0.19-0.18c-0.17,0-0.33-0.03-0.47-0.09
				c-0.15-0.06-0.27-0.15-0.38-0.26c-0.09-0.1-0.16-0.21-0.21-0.31c-0.05-0.11-0.07-0.21-0.08-0.32c0-0.1,0.02-0.21,0.06-0.31
				s0.11-0.19,0.21-0.28c0.11-0.1,0.23-0.16,0.35-0.19s0.25-0.03,0.38,0.01c0.13,0.03,0.26,0.1,0.4,0.2
				c0.14,0.1,0.27,0.22,0.41,0.37l0.25,0.27l0.15-0.14c0.08-0.07,0.13-0.14,0.18-0.21c0.04-0.07,0.07-0.14,0.07-0.21
				c0.01-0.07-0.01-0.14-0.04-0.22c-0.03-0.07-0.08-0.15-0.16-0.23c-0.08-0.09-0.16-0.16-0.25-0.21c-0.08-0.05-0.16-0.09-0.24-0.12
				c-0.07-0.03-0.14-0.05-0.19-0.07c-0.05-0.02-0.09-0.03-0.1-0.05c-0.01-0.01-0.02-0.02-0.02-0.04c0-0.01,0-0.03,0.01-0.05
				c0.01-0.02,0.02-0.04,0.03-0.05c0.02-0.02,0.03-0.04,0.06-0.06c0.04-0.03,0.07-0.06,0.09-0.07c0.03-0.01,0.06-0.02,0.09-0.02
				s0.09,0.02,0.16,0.04s0.14,0.06,0.22,0.1s0.16,0.09,0.24,0.16c0.08,0.06,0.16,0.13,0.22,0.2c0.13,0.14,0.22,0.27,0.28,0.4
				c0.06,0.13,0.08,0.25,0.08,0.37c-0.01,0.12-0.04,0.23-0.11,0.34c-0.07,0.11-0.16,0.22-0.28,0.33L18.05,69.89z M18.62,68.73
				l-0.28-0.31c-0.09-0.1-0.18-0.18-0.26-0.23s-0.16-0.09-0.24-0.11c-0.08-0.02-0.15-0.02-0.21,0s-0.13,0.06-0.19,0.11
				c-0.1,0.09-0.15,0.2-0.15,0.32c0,0.12,0.05,0.24,0.16,0.35c0.09,0.09,0.19,0.16,0.31,0.2s0.27,0.05,0.45,0.05L18.62,68.73z"/>
			<path class="st1" d="M21.72,70c-0.03,0.03-0.05,0.06-0.08,0.08s-0.04,0.03-0.06,0.04c-0.02,0.01-0.03,0.01-0.04,0.01
				c-0.01,0-0.02,0-0.04-0.02c-0.01-0.01-0.02-0.03-0.03-0.05c-0.01-0.02-0.02-0.05-0.04-0.07s-0.03-0.05-0.05-0.08
				c-0.02-0.03-0.05-0.06-0.08-0.09c-0.04-0.03-0.08-0.06-0.12-0.08c-0.05-0.02-0.11-0.03-0.17-0.03c-0.07,0-0.15,0-0.24,0.02
				c-0.09,0.02-0.2,0.04-0.32,0.07l-1.19,1.26c-0.01,0.01-0.02,0.02-0.04,0.02c-0.01,0-0.03,0-0.05-0.01s-0.04-0.02-0.07-0.04
				s-0.06-0.04-0.09-0.08c-0.03-0.03-0.06-0.06-0.08-0.08c-0.02-0.02-0.03-0.05-0.04-0.06c-0.01-0.02-0.01-0.03-0.01-0.05
				c0-0.01,0.01-0.02,0.02-0.04l1.81-1.92c0.01-0.01,0.02-0.02,0.03-0.02c0.01,0,0.03,0,0.05,0c0.02,0.01,0.04,0.02,0.06,0.03
				s0.05,0.04,0.08,0.07c0.03,0.03,0.06,0.06,0.07,0.08s0.03,0.04,0.04,0.06c0.01,0.02,0.01,0.03,0,0.04c0,0.01-0.01,0.02-0.02,0.04
				l-0.26,0.28c0.12-0.03,0.23-0.04,0.32-0.05c0.09,0,0.17,0,0.24,0.01s0.13,0.03,0.18,0.06c0.05,0.03,0.1,0.06,0.14,0.1
				c0.02,0.02,0.04,0.04,0.06,0.06c0.02,0.02,0.04,0.05,0.06,0.08c0.02,0.03,0.04,0.06,0.05,0.08c0.01,0.03,0.02,0.05,0.02,0.06
				c0,0.02,0,0.03,0,0.04c0,0.01-0.01,0.02-0.02,0.03c-0.01,0.01-0.02,0.03-0.04,0.05C21.78,69.95,21.76,69.97,21.72,70z"/>
			<path class="st1" d="M25.43,73.61c-0.19,0.27-0.39,0.47-0.61,0.62c-0.21,0.15-0.43,0.24-0.65,0.28
				c-0.22,0.04-0.46,0.02-0.69-0.05c-0.24-0.07-0.49-0.2-0.75-0.39l-0.65-0.47c-0.04-0.03-0.06-0.06-0.08-0.11
				c-0.01-0.05,0-0.1,0.04-0.16l1.98-2.74c0.04-0.06,0.09-0.09,0.14-0.09c0.05,0,0.09,0.01,0.13,0.04l0.7,0.5
				c0.27,0.19,0.47,0.39,0.6,0.59c0.13,0.2,0.22,0.41,0.25,0.63c0.03,0.22,0.01,0.44-0.06,0.67S25.6,73.38,25.43,73.61z
				 M24.99,73.32c0.12-0.17,0.21-0.34,0.27-0.51c0.06-0.17,0.09-0.34,0.07-0.51c-0.01-0.17-0.06-0.33-0.16-0.49
				c-0.09-0.16-0.24-0.31-0.46-0.46l-0.42-0.3l-1.73,2.39l0.42,0.3c0.2,0.14,0.38,0.24,0.55,0.28c0.17,0.05,0.34,0.05,0.5,0.02
				s0.32-0.11,0.48-0.23C24.69,73.69,24.84,73.53,24.99,73.32z"/>
			<path class="st1" d="M25.63,75.91c-0.01,0.01-0.02,0.02-0.03,0.03c-0.01,0-0.03,0.01-0.05,0s-0.04-0.01-0.07-0.02
				c-0.03-0.01-0.06-0.03-0.11-0.06c-0.04-0.02-0.07-0.05-0.1-0.07c-0.02-0.02-0.04-0.04-0.05-0.05c-0.01-0.02-0.02-0.03-0.02-0.04
				c0-0.01,0-0.03,0.01-0.04l1.37-2.25c0.01-0.01,0.02-0.02,0.03-0.03c0.01-0.01,0.03-0.01,0.05,0s0.04,0.01,0.07,0.02
				c0.03,0.01,0.06,0.03,0.1,0.06c0.04,0.03,0.07,0.05,0.1,0.07c0.02,0.02,0.04,0.04,0.05,0.05c0.01,0.02,0.02,0.03,0.02,0.04
				s0,0.03-0.01,0.04L25.63,75.91z M27.51,72.93c-0.06,0.1-0.12,0.15-0.18,0.16c-0.06,0.01-0.14-0.01-0.23-0.07
				c-0.1-0.06-0.15-0.12-0.17-0.17c-0.02-0.06,0.01-0.13,0.06-0.23c0.06-0.1,0.12-0.15,0.18-0.16c0.06-0.01,0.14,0.01,0.23,0.07
				c0.1,0.06,0.15,0.12,0.17,0.17S27.57,72.83,27.51,72.93z"/>
			<path class="st1" d="M28.43,76.64c-0.06,0.12-0.14,0.21-0.24,0.28C28.1,77,28,77.04,27.88,77.06c-0.11,0.02-0.24,0.02-0.37-0.01
				c-0.13-0.03-0.26-0.08-0.4-0.15c-0.08-0.04-0.16-0.09-0.23-0.15c-0.07-0.05-0.13-0.1-0.18-0.16c-0.05-0.05-0.09-0.1-0.12-0.14
				c-0.03-0.04-0.05-0.08-0.06-0.11s-0.01-0.06,0-0.09c0.01-0.04,0.03-0.08,0.05-0.13c0.02-0.03,0.03-0.06,0.05-0.08
				c0.02-0.02,0.03-0.04,0.04-0.05c0.01-0.01,0.02-0.02,0.04-0.02s0.03,0,0.04,0.01c0.02,0.01,0.04,0.04,0.07,0.08
				c0.02,0.04,0.06,0.09,0.1,0.15c0.04,0.06,0.09,0.12,0.15,0.18c0.06,0.06,0.14,0.12,0.24,0.17c0.07,0.04,0.14,0.07,0.21,0.08
				s0.13,0.02,0.19,0.01c0.06-0.01,0.11-0.03,0.16-0.06s0.09-0.08,0.12-0.15c0.03-0.07,0.05-0.13,0.04-0.19
				c-0.01-0.06-0.03-0.13-0.07-0.19c-0.04-0.06-0.08-0.13-0.14-0.19s-0.11-0.13-0.17-0.2s-0.11-0.14-0.16-0.21
				c-0.05-0.07-0.09-0.15-0.12-0.24c-0.03-0.08-0.04-0.17-0.03-0.26c0.01-0.09,0.04-0.19,0.09-0.29c0.05-0.09,0.11-0.17,0.19-0.23
				c0.08-0.06,0.17-0.11,0.28-0.14s0.22-0.03,0.35-0.01c0.13,0.02,0.26,0.07,0.4,0.14c0.06,0.03,0.12,0.07,0.18,0.11
				s0.11,0.09,0.15,0.13c0.04,0.04,0.08,0.08,0.1,0.12c0.03,0.04,0.04,0.07,0.05,0.09s0.02,0.04,0.02,0.06c0,0.01,0,0.03-0.01,0.04
				c0,0.01-0.01,0.03-0.02,0.05c-0.01,0.02-0.02,0.04-0.03,0.07c-0.02,0.03-0.03,0.05-0.04,0.07s-0.03,0.04-0.04,0.05
				c-0.01,0.01-0.03,0.02-0.04,0.02s-0.02,0-0.03-0.01c-0.02-0.01-0.03-0.03-0.05-0.06c-0.02-0.03-0.05-0.07-0.08-0.12
				c-0.04-0.05-0.08-0.1-0.13-0.15c-0.05-0.05-0.12-0.1-0.2-0.14c-0.07-0.04-0.14-0.06-0.2-0.08c-0.06-0.01-0.12-0.01-0.17,0
				c-0.05,0.01-0.1,0.03-0.14,0.06s-0.07,0.07-0.1,0.12c-0.04,0.07-0.05,0.13-0.04,0.2c0.01,0.06,0.03,0.13,0.07,0.19
				c0.04,0.06,0.08,0.13,0.14,0.19c0.06,0.06,0.11,0.13,0.17,0.2s0.11,0.14,0.16,0.21s0.09,0.15,0.12,0.23
				c0.03,0.08,0.04,0.17,0.03,0.26S28.49,76.54,28.43,76.64z"/>
			<path class="st1" d="M30.81,78.51c-0.01,0.02-0.02,0.03-0.04,0.04s-0.04,0-0.07,0s-0.07-0.02-0.11-0.04
				c-0.05-0.02-0.08-0.04-0.11-0.06s-0.04-0.03-0.05-0.05s-0.01-0.04,0-0.06l0.1-0.24c-0.15,0.07-0.31,0.1-0.47,0.11
				s-0.31-0.02-0.45-0.08c-0.13-0.06-0.23-0.12-0.32-0.2c-0.09-0.08-0.16-0.16-0.2-0.26c-0.05-0.09-0.07-0.2-0.07-0.3
				c0-0.11,0.02-0.22,0.07-0.34c0.06-0.14,0.14-0.24,0.24-0.32c0.1-0.08,0.21-0.12,0.35-0.15c0.13-0.02,0.28-0.02,0.45,0.02
				c0.17,0.03,0.34,0.09,0.53,0.17l0.33,0.14l0.08-0.19c0.04-0.09,0.07-0.18,0.08-0.26c0.01-0.08,0.01-0.15-0.02-0.22
				c-0.02-0.07-0.06-0.13-0.12-0.18c-0.06-0.05-0.14-0.1-0.24-0.15c-0.11-0.05-0.21-0.08-0.31-0.09c-0.1-0.01-0.19-0.02-0.27-0.01
				s-0.15,0.01-0.2,0.01s-0.09,0.01-0.12,0c-0.01-0.01-0.02-0.02-0.03-0.03c-0.01-0.01-0.01-0.03-0.01-0.04c0-0.02,0-0.04,0.01-0.06
				c0.01-0.02,0.02-0.05,0.03-0.08c0.02-0.04,0.04-0.08,0.06-0.1c0.02-0.02,0.04-0.04,0.08-0.05c0.03-0.01,0.09-0.02,0.16-0.03
				s0.15,0,0.24,0c0.09,0.01,0.18,0.02,0.28,0.05c0.1,0.02,0.19,0.05,0.29,0.09c0.17,0.08,0.31,0.16,0.42,0.25
				c0.1,0.09,0.18,0.19,0.22,0.3c0.04,0.11,0.06,0.23,0.04,0.35c-0.01,0.13-0.05,0.27-0.12,0.42L30.81,78.51z M30.85,77.21
				l-0.38-0.16c-0.12-0.05-0.23-0.09-0.33-0.11c-0.1-0.02-0.19-0.02-0.26-0.01s-0.14,0.04-0.19,0.09c-0.05,0.04-0.09,0.1-0.13,0.18
				c-0.05,0.12-0.06,0.24-0.01,0.35c0.05,0.11,0.14,0.19,0.29,0.26c0.12,0.05,0.24,0.07,0.36,0.05c0.12-0.02,0.27-0.06,0.43-0.14
				L30.85,77.21z"/>
			<path class="st1" d="M34.69,78.42c-0.07,0.22-0.16,0.4-0.26,0.56c-0.1,0.16-0.22,0.28-0.35,0.38c-0.13,0.09-0.28,0.15-0.43,0.17
				c-0.15,0.02-0.32,0-0.49-0.05c-0.08-0.03-0.15-0.06-0.21-0.1c-0.06-0.04-0.12-0.08-0.17-0.14c-0.05-0.06-0.1-0.12-0.15-0.2
				s-0.09-0.16-0.14-0.26l-0.1,0.31c0,0.01-0.01,0.03-0.02,0.04c-0.01,0.01-0.03,0.01-0.04,0.01c-0.02,0-0.04,0-0.07-0.01
				s-0.06-0.01-0.1-0.03c-0.04-0.01-0.07-0.02-0.09-0.04c-0.02-0.01-0.04-0.02-0.06-0.04c-0.01-0.01-0.02-0.02-0.02-0.04
				c0-0.01,0-0.03,0-0.04l1.22-3.72c0-0.01,0.01-0.03,0.02-0.04c0.01-0.01,0.03-0.01,0.05-0.02c0.02,0,0.05,0,0.08,0.01
				c0.03,0.01,0.07,0.02,0.11,0.03c0.05,0.02,0.08,0.03,0.11,0.04c0.03,0.01,0.05,0.03,0.06,0.04c0.01,0.01,0.02,0.03,0.03,0.04
				c0,0.01,0,0.03,0,0.04l-0.49,1.5c0.1-0.05,0.19-0.09,0.28-0.12c0.09-0.03,0.17-0.05,0.25-0.06c0.08-0.01,0.15-0.01,0.22,0
				c0.07,0.01,0.14,0.02,0.22,0.05c0.18,0.06,0.33,0.15,0.43,0.26c0.1,0.11,0.18,0.25,0.22,0.39c0.04,0.15,0.05,0.31,0.04,0.49
				C34.79,78.06,34.75,78.24,34.69,78.42z M34.2,78.32c0.04-0.13,0.07-0.26,0.09-0.38c0.02-0.13,0.02-0.24,0-0.35
				s-0.06-0.2-0.12-0.29s-0.15-0.14-0.27-0.18c-0.06-0.02-0.12-0.03-0.18-0.03c-0.06,0-0.13,0.01-0.2,0.03
				c-0.07,0.02-0.15,0.05-0.24,0.09S33.1,77.29,33,77.35l-0.33,1c0.08,0.2,0.16,0.35,0.25,0.47s0.2,0.2,0.32,0.24
				c0.12,0.04,0.22,0.04,0.32,0.01c0.1-0.03,0.19-0.08,0.27-0.16c0.08-0.08,0.15-0.17,0.21-0.27C34.11,78.54,34.16,78.43,34.2,78.32
				z"/>
			<path class="st1" d="M35.74,80.07c0,0.02-0.01,0.03-0.02,0.04c-0.01,0.01-0.02,0.01-0.04,0.02c-0.02,0-0.04,0-0.08,0
				s-0.07-0.01-0.12-0.02c-0.05-0.01-0.08-0.02-0.11-0.03c-0.03-0.01-0.05-0.02-0.07-0.04c-0.02-0.01-0.03-0.02-0.03-0.04
				c0-0.01,0-0.03,0-0.04l0.95-3.8c0-0.02,0.01-0.03,0.02-0.04c0.01-0.01,0.02-0.02,0.04-0.02s0.05,0,0.08,0
				c0.03,0,0.07,0.01,0.12,0.02c0.05,0.01,0.09,0.02,0.12,0.04c0.03,0.01,0.05,0.02,0.07,0.03c0.02,0.01,0.03,0.02,0.03,0.04
				c0,0.01,0.01,0.03,0,0.04L35.74,80.07z"/>
			<path class="st1" d="M39.37,79.34c-0.01,0.08-0.04,0.12-0.08,0.15c-0.04,0.02-0.09,0.03-0.14,0.02l-1.71-0.31
				c-0.03,0.14-0.03,0.28-0.03,0.4c0.01,0.12,0.04,0.23,0.09,0.32s0.13,0.17,0.23,0.24c0.1,0.06,0.23,0.11,0.39,0.14
				c0.12,0.02,0.24,0.03,0.34,0.03c0.1,0,0.19-0.01,0.26-0.02c0.07-0.01,0.14-0.02,0.19-0.04c0.05-0.01,0.08-0.02,0.11-0.01
				c0.01,0,0.02,0.01,0.03,0.02c0.01,0.01,0.02,0.02,0.02,0.03c0,0.01,0,0.03,0,0.06c0,0.02-0.01,0.05-0.01,0.09
				c0,0.02-0.01,0.05-0.01,0.06c-0.01,0.02-0.01,0.03-0.02,0.05c-0.01,0.01-0.01,0.03-0.02,0.04s-0.02,0.02-0.03,0.03
				c-0.01,0.01-0.05,0.02-0.1,0.04c-0.06,0.01-0.13,0.03-0.21,0.03s-0.19,0.01-0.3,0.01S38.13,80.7,38,80.68
				c-0.21-0.04-0.4-0.1-0.54-0.19c-0.15-0.09-0.27-0.2-0.36-0.34c-0.09-0.14-0.14-0.3-0.17-0.49c-0.02-0.19-0.01-0.4,0.03-0.63
				c0.04-0.22,0.11-0.42,0.19-0.59c0.09-0.17,0.2-0.3,0.33-0.41c0.13-0.1,0.28-0.18,0.45-0.21c0.17-0.04,0.34-0.04,0.53-0.01
				c0.2,0.04,0.37,0.1,0.5,0.19s0.23,0.2,0.31,0.33c0.07,0.13,0.12,0.27,0.13,0.43c0.02,0.16,0.01,0.32-0.02,0.49L39.37,79.34z
				 M38.92,79.11c0.05-0.25,0.03-0.46-0.06-0.62c-0.09-0.16-0.25-0.27-0.48-0.31c-0.12-0.02-0.23-0.02-0.32,0.01
				c-0.1,0.03-0.18,0.07-0.25,0.14c-0.07,0.06-0.14,0.14-0.19,0.23s-0.09,0.19-0.11,0.29L38.92,79.11z"/>
			<path class="st1" d="M42.43,81.08c0,0.02-0.01,0.03-0.01,0.04c-0.01,0.01-0.02,0.02-0.04,0.02s-0.04,0.01-0.07,0.01
				c-0.03,0-0.06,0-0.1,0c-0.04,0-0.07-0.01-0.1-0.01s-0.05-0.01-0.07-0.02c-0.02-0.01-0.03-0.02-0.04-0.03
				C42,81.07,42,81.06,42,81.04l0.03-0.35c-0.15,0.14-0.3,0.24-0.46,0.31c-0.16,0.07-0.32,0.1-0.5,0.08
				c-0.19-0.02-0.35-0.07-0.48-0.15c-0.13-0.09-0.23-0.2-0.31-0.33c-0.07-0.13-0.12-0.29-0.15-0.47c-0.02-0.18-0.03-0.36-0.01-0.55
				c0.02-0.23,0.06-0.43,0.13-0.6c0.06-0.18,0.15-0.33,0.26-0.45s0.23-0.21,0.38-0.27c0.15-0.06,0.31-0.08,0.5-0.06
				c0.15,0.01,0.29,0.06,0.41,0.14s0.24,0.19,0.35,0.33l0.13-1.53c0-0.01,0.01-0.03,0.01-0.04c0.01-0.01,0.02-0.02,0.04-0.03
				c0.02-0.01,0.05-0.01,0.08-0.01s0.07,0,0.12,0c0.05,0,0.09,0.01,0.12,0.02c0.03,0.01,0.05,0.02,0.07,0.02
				c0.02,0.01,0.03,0.02,0.04,0.03c0.01,0.01,0.01,0.03,0.01,0.04L42.43,81.08z M42.11,79.19c-0.12-0.17-0.23-0.31-0.35-0.4
				c-0.11-0.1-0.24-0.15-0.37-0.16c-0.12-0.01-0.23,0.01-0.32,0.06c-0.09,0.05-0.17,0.12-0.23,0.21s-0.11,0.2-0.14,0.31
				c-0.03,0.12-0.06,0.24-0.07,0.36c-0.01,0.13-0.01,0.26,0,0.39c0.01,0.13,0.04,0.24,0.08,0.35c0.04,0.1,0.1,0.19,0.18,0.25
				c0.08,0.07,0.18,0.11,0.31,0.12c0.06,0.01,0.13,0,0.19-0.01c0.06-0.01,0.12-0.04,0.19-0.07s0.14-0.08,0.21-0.14
				c0.07-0.06,0.15-0.13,0.24-0.22L42.11,79.19z"/>
			<path class="st1" d="M47.83,80.53c0,0.03,0,0.06,0,0.08c0,0.02,0,0.04-0.01,0.06c0,0.02-0.01,0.03-0.02,0.05
				c-0.01,0.01-0.02,0.03-0.04,0.05s-0.06,0.05-0.12,0.1c-0.06,0.04-0.14,0.09-0.23,0.13c-0.09,0.04-0.2,0.08-0.31,0.11
				c-0.12,0.03-0.25,0.05-0.39,0.06c-0.25,0.01-0.47-0.02-0.67-0.09c-0.2-0.07-0.38-0.18-0.52-0.34c-0.15-0.15-0.27-0.34-0.35-0.58
				c-0.09-0.23-0.14-0.5-0.15-0.81c-0.02-0.31,0.01-0.6,0.08-0.85c0.07-0.25,0.17-0.46,0.31-0.64c0.14-0.18,0.31-0.32,0.5-0.42
				c0.2-0.1,0.42-0.16,0.67-0.17c0.11-0.01,0.22,0,0.32,0.01s0.2,0.04,0.29,0.06c0.09,0.03,0.17,0.06,0.24,0.1
				c0.07,0.04,0.12,0.07,0.15,0.09c0.03,0.02,0.05,0.04,0.05,0.06c0.01,0.01,0.02,0.03,0.02,0.05c0.01,0.02,0.01,0.04,0.02,0.07
				s0.01,0.06,0.01,0.09c0,0.04,0,0.07,0,0.1c0,0.03-0.01,0.05-0.01,0.07c-0.01,0.02-0.02,0.03-0.03,0.04
				c-0.01,0.01-0.02,0.01-0.04,0.02c-0.03,0-0.07-0.02-0.12-0.05c-0.05-0.04-0.12-0.07-0.2-0.12c-0.08-0.04-0.18-0.08-0.29-0.11
				s-0.25-0.04-0.4-0.04c-0.17,0.01-0.32,0.05-0.46,0.12c-0.13,0.07-0.25,0.18-0.34,0.32c-0.09,0.14-0.16,0.3-0.2,0.49
				s-0.06,0.41-0.05,0.65c0.01,0.24,0.05,0.45,0.11,0.63s0.14,0.33,0.25,0.45c0.1,0.12,0.23,0.21,0.37,0.26
				c0.14,0.06,0.31,0.08,0.48,0.07c0.15-0.01,0.28-0.03,0.39-0.08c0.11-0.04,0.21-0.09,0.28-0.14c0.08-0.05,0.14-0.09,0.19-0.13
				c0.05-0.04,0.09-0.06,0.12-0.06c0.01,0,0.03,0,0.04,0.01s0.02,0.02,0.03,0.03c0.01,0.02,0.01,0.04,0.02,0.07
				C47.82,80.45,47.82,80.49,47.83,80.53z"/>
			<path class="st1" d="M51.07,80.54c0,0.02,0,0.03-0.01,0.04c-0.01,0.01-0.02,0.02-0.03,0.03c-0.02,0.01-0.04,0.02-0.07,0.03
				c-0.03,0.01-0.07,0.02-0.12,0.02c-0.05,0.01-0.09,0.01-0.12,0.01c-0.03,0-0.06,0-0.07-0.01c-0.02-0.01-0.03-0.01-0.04-0.02
				s-0.02-0.02-0.02-0.04l-0.23-1.53c-0.02-0.15-0.05-0.27-0.09-0.35c-0.04-0.09-0.08-0.16-0.14-0.22c-0.05-0.06-0.12-0.1-0.19-0.12
				c-0.08-0.02-0.16-0.03-0.25-0.02c-0.12,0.02-0.23,0.08-0.34,0.18c-0.11,0.1-0.21,0.25-0.32,0.43l0.27,1.82
				c0,0.02,0,0.03-0.01,0.04s-0.02,0.02-0.03,0.03c-0.02,0.01-0.04,0.02-0.07,0.03c-0.03,0.01-0.07,0.02-0.12,0.02
				c-0.05,0.01-0.09,0.01-0.12,0.01c-0.03,0-0.06,0-0.08-0.01s-0.03-0.01-0.04-0.02c-0.01-0.01-0.01-0.02-0.02-0.04l-0.58-3.87
				c0-0.02,0-0.03,0-0.04c0.01-0.01,0.02-0.02,0.03-0.03c0.02-0.01,0.04-0.02,0.07-0.03c0.03-0.01,0.07-0.02,0.11-0.02
				c0.05-0.01,0.09-0.01,0.12-0.01c0.03,0,0.06,0,0.08,0.01c0.02,0.01,0.03,0.01,0.04,0.02c0.01,0.01,0.02,0.02,0.02,0.04l0.23,1.56
				c0.12-0.17,0.24-0.29,0.37-0.39c0.13-0.09,0.26-0.15,0.4-0.17c0.17-0.03,0.32-0.02,0.45,0.02c0.13,0.04,0.24,0.11,0.32,0.19
				c0.09,0.09,0.16,0.2,0.21,0.32c0.05,0.13,0.09,0.28,0.12,0.47L51.07,80.54z"/>
			<path class="st1" d="M51.97,76.74c0.02,0.11,0.02,0.19-0.01,0.24c-0.03,0.05-0.11,0.09-0.22,0.11c-0.11,0.02-0.19,0.02-0.24-0.01
				c-0.05-0.03-0.09-0.1-0.11-0.21c-0.02-0.11-0.02-0.19,0.01-0.24c0.03-0.05,0.11-0.09,0.22-0.11c0.11-0.02,0.19-0.02,0.24,0.01
				C51.91,76.56,51.95,76.63,51.97,76.74z M52.68,80.2c0,0.02,0,0.03,0,0.04s-0.02,0.02-0.03,0.04c-0.02,0.01-0.04,0.02-0.07,0.03
				c-0.03,0.01-0.07,0.02-0.12,0.03c-0.05,0.01-0.08,0.02-0.12,0.02c-0.03,0-0.06,0-0.08,0c-0.02,0-0.03-0.01-0.04-0.02
				c-0.01-0.01-0.02-0.02-0.02-0.04l-0.57-2.57c0-0.01,0-0.03,0-0.04c0-0.01,0.01-0.02,0.03-0.04s0.04-0.02,0.07-0.03
				c0.03-0.01,0.07-0.02,0.11-0.03c0.05-0.01,0.09-0.02,0.12-0.02s0.06,0,0.08,0c0.02,0,0.03,0.01,0.04,0.02
				c0.01,0.01,0.02,0.02,0.02,0.03L52.68,80.2z"/>
			<path class="st1" d="M54.22,79.81c0,0.02,0,0.03,0,0.04c0,0.01-0.01,0.02-0.03,0.04c-0.01,0.01-0.04,0.02-0.07,0.04
				c-0.03,0.01-0.07,0.02-0.11,0.04c-0.04,0.01-0.08,0.02-0.11,0.02s-0.06,0.01-0.08,0c-0.02,0-0.03-0.01-0.04-0.02
				c-0.01-0.01-0.02-0.02-0.02-0.04l-1.01-3.78c0-0.02,0-0.03,0-0.04c0-0.01,0.01-0.03,0.03-0.04c0.02-0.01,0.04-0.02,0.07-0.04
				c0.03-0.01,0.07-0.02,0.11-0.04c0.05-0.01,0.09-0.02,0.12-0.03s0.06,0,0.08,0s0.03,0.01,0.04,0.02c0.01,0.01,0.02,0.02,0.02,0.04
				L54.22,79.81z"/>
			<path class="st1" d="M57.51,78.75c0.01,0.01,0.01,0.03,0,0.04s-0.01,0.03-0.02,0.04c-0.01,0.01-0.03,0.02-0.06,0.04
				c-0.02,0.01-0.06,0.02-0.09,0.04c-0.04,0.01-0.07,0.02-0.1,0.03c-0.03,0-0.05,0.01-0.07,0.01c-0.02,0-0.03-0.01-0.04-0.01
				c-0.01-0.01-0.02-0.02-0.02-0.03l-0.11-0.33c-0.08,0.19-0.18,0.35-0.29,0.47s-0.25,0.22-0.42,0.28c-0.18,0.06-0.35,0.08-0.5,0.06
				c-0.15-0.03-0.29-0.09-0.41-0.18s-0.23-0.21-0.32-0.37c-0.09-0.15-0.17-0.32-0.23-0.5c-0.07-0.21-0.12-0.42-0.13-0.6
				c-0.01-0.19,0-0.36,0.05-0.51c0.05-0.15,0.13-0.29,0.24-0.4s0.25-0.2,0.43-0.26c0.15-0.05,0.29-0.06,0.43-0.04
				c0.14,0.02,0.29,0.07,0.46,0.16l-0.5-1.45c0-0.01-0.01-0.03,0-0.04s0.01-0.03,0.03-0.04s0.04-0.03,0.06-0.04
				c0.03-0.01,0.06-0.03,0.11-0.04c0.05-0.02,0.08-0.03,0.12-0.03c0.03-0.01,0.06-0.01,0.08-0.01c0.02,0,0.03,0.01,0.05,0.02
				c0.01,0.01,0.02,0.02,0.03,0.03L57.51,78.75z M56.44,77.16c-0.18-0.11-0.34-0.19-0.48-0.23s-0.28-0.04-0.4,0
				c-0.12,0.04-0.21,0.1-0.27,0.19c-0.06,0.08-0.1,0.18-0.12,0.29c-0.02,0.11-0.02,0.22,0,0.35c0.02,0.12,0.05,0.24,0.09,0.36
				c0.04,0.13,0.1,0.24,0.16,0.36c0.06,0.11,0.13,0.21,0.21,0.29c0.08,0.08,0.17,0.13,0.27,0.16c0.1,0.03,0.21,0.02,0.33-0.02
				c0.06-0.02,0.12-0.05,0.17-0.09c0.05-0.04,0.1-0.08,0.14-0.14c0.05-0.06,0.09-0.13,0.13-0.22c0.04-0.08,0.09-0.18,0.13-0.3
				L56.44,77.16z"/>
			<path class="st1" d="M61.85,76.6c0.02,0.04,0.03,0.07,0.04,0.09c0.01,0.03,0.01,0.05,0.01,0.07s0,0.04-0.01,0.05
				c-0.01,0.01-0.02,0.02-0.03,0.03l-1.5,0.75c-0.04,0.02-0.08,0.03-0.13,0.02c-0.05-0.01-0.09-0.05-0.13-0.12l-1.57-3.14
				c-0.01-0.01-0.01-0.03-0.01-0.04c0-0.01,0.01-0.03,0.02-0.04c0.01-0.02,0.04-0.03,0.06-0.05c0.03-0.02,0.06-0.04,0.1-0.06
				c0.04-0.02,0.08-0.04,0.11-0.05c0.03-0.01,0.06-0.02,0.08-0.02s0.04,0,0.05,0.01c0.01,0.01,0.02,0.02,0.03,0.03l1.47,2.93
				l1.22-0.61c0.02-0.01,0.03-0.01,0.05-0.01c0.02,0,0.03,0.01,0.05,0.02s0.03,0.03,0.05,0.05C61.82,76.54,61.83,76.57,61.85,76.6z"
				/>
			<path class="st1" d="M63.81,73.93c0.04,0.06,0.05,0.12,0.04,0.17c-0.02,0.05-0.04,0.08-0.09,0.11l-1.48,0.9
				c0.08,0.12,0.16,0.23,0.24,0.31c0.09,0.08,0.18,0.15,0.28,0.18c0.1,0.04,0.21,0.04,0.33,0.03c0.12-0.02,0.24-0.07,0.38-0.15
				c0.11-0.07,0.2-0.13,0.27-0.2c0.07-0.07,0.13-0.13,0.18-0.19c0.05-0.06,0.09-0.11,0.11-0.15s0.05-0.07,0.07-0.08
				c0.01-0.01,0.02-0.01,0.04-0.01c0.01,0,0.03,0,0.04,0.01c0.01,0.01,0.03,0.02,0.04,0.04s0.03,0.04,0.05,0.07
				c0.01,0.02,0.02,0.04,0.03,0.06c0.01,0.02,0.01,0.03,0.02,0.05c0.01,0.01,0.01,0.03,0.01,0.04c0,0.01,0,0.03,0,0.04
				c0,0.01-0.02,0.05-0.05,0.09c-0.03,0.05-0.08,0.1-0.14,0.17c-0.06,0.06-0.13,0.13-0.22,0.21s-0.18,0.14-0.29,0.21
				c-0.19,0.11-0.36,0.19-0.53,0.22s-0.33,0.03-0.49-0.02c-0.16-0.04-0.31-0.13-0.45-0.25c-0.14-0.12-0.27-0.29-0.4-0.49
				c-0.12-0.19-0.2-0.38-0.24-0.57c-0.04-0.19-0.05-0.36-0.02-0.52c0.03-0.17,0.09-0.32,0.19-0.46c0.1-0.14,0.23-0.26,0.4-0.36
				c0.18-0.11,0.34-0.17,0.5-0.19s0.31,0,0.45,0.04c0.14,0.05,0.27,0.12,0.38,0.23s0.22,0.23,0.31,0.38L63.81,73.93z M63.32,74.06
				c-0.13-0.22-0.28-0.36-0.46-0.42s-0.37-0.03-0.56,0.09c-0.1,0.06-0.18,0.14-0.23,0.22s-0.09,0.18-0.1,0.27
				c-0.01,0.1-0.01,0.19,0.01,0.29c0.02,0.1,0.06,0.2,0.11,0.29L63.32,74.06z"/>
			<path class="st1" d="M67.05,73.36c0.01,0.02,0.02,0.04,0.01,0.06c-0.01,0.02-0.02,0.04-0.04,0.06c-0.02,0.02-0.05,0.05-0.09,0.08
				c-0.04,0.03-0.07,0.05-0.1,0.07s-0.05,0.02-0.07,0.02c-0.02,0-0.03-0.01-0.05-0.03l-0.16-0.21c-0.02,0.17-0.07,0.32-0.14,0.46
				s-0.17,0.26-0.3,0.35c-0.11,0.08-0.22,0.14-0.33,0.18c-0.11,0.04-0.22,0.05-0.32,0.04c-0.1-0.01-0.2-0.04-0.3-0.09
				c-0.09-0.05-0.18-0.13-0.25-0.23c-0.09-0.12-0.14-0.24-0.16-0.37c-0.02-0.12,0-0.25,0.05-0.37c0.05-0.13,0.13-0.25,0.24-0.38
				c0.11-0.13,0.25-0.25,0.41-0.37l0.29-0.22l-0.12-0.17c-0.06-0.08-0.12-0.15-0.19-0.2c-0.06-0.05-0.13-0.08-0.2-0.1
				c-0.07-0.01-0.14-0.01-0.22,0.02c-0.08,0.02-0.16,0.07-0.25,0.14c-0.1,0.07-0.17,0.15-0.23,0.23c-0.06,0.08-0.11,0.15-0.14,0.22
				c-0.04,0.07-0.07,0.13-0.09,0.18c-0.02,0.05-0.04,0.08-0.06,0.1c-0.01,0.01-0.03,0.01-0.04,0.02c-0.01,0-0.03,0-0.05-0.01
				c-0.02-0.01-0.03-0.02-0.05-0.04c-0.02-0.02-0.04-0.04-0.05-0.06c-0.03-0.04-0.05-0.07-0.06-0.1c-0.01-0.03-0.01-0.06-0.01-0.09
				c0.01-0.04,0.02-0.09,0.06-0.15c0.03-0.07,0.07-0.14,0.12-0.21s0.11-0.15,0.18-0.22c0.07-0.07,0.14-0.14,0.23-0.2
				c0.15-0.11,0.29-0.19,0.43-0.24s0.26-0.06,0.37-0.04c0.12,0.02,0.22,0.06,0.33,0.14c0.1,0.08,0.2,0.18,0.3,0.31L67.05,73.36z
				 M65.95,72.68l-0.33,0.25c-0.11,0.08-0.19,0.16-0.26,0.23c-0.06,0.08-0.11,0.15-0.14,0.23c-0.03,0.07-0.03,0.14-0.02,0.21
				s0.04,0.13,0.09,0.2c0.08,0.11,0.18,0.17,0.3,0.19c0.12,0.01,0.24-0.03,0.37-0.12c0.1-0.08,0.18-0.17,0.23-0.29
				s0.08-0.26,0.1-0.44L65.95,72.68z"/>
			<path class="st1" d="M67.52,69.74c0.03,0.03,0.05,0.06,0.07,0.08c0.02,0.02,0.03,0.04,0.04,0.06c0.01,0.02,0.01,0.03,0.01,0.04
				c0,0.01-0.01,0.02-0.02,0.03c-0.01,0.01-0.03,0.02-0.05,0.03c-0.02,0.01-0.05,0.02-0.07,0.03s-0.06,0.03-0.09,0.04
				s-0.06,0.04-0.09,0.07c-0.04,0.03-0.07,0.07-0.09,0.12s-0.04,0.1-0.05,0.17s-0.01,0.15-0.01,0.24c0.01,0.09,0.02,0.2,0.04,0.33
				l1.13,1.31c0.01,0.01,0.02,0.02,0.02,0.04c0,0.01,0,0.03-0.01,0.05c-0.01,0.02-0.02,0.04-0.04,0.06s-0.05,0.05-0.09,0.08
				c-0.04,0.03-0.07,0.05-0.09,0.07c-0.03,0.02-0.05,0.03-0.07,0.04s-0.03,0.01-0.05,0c-0.01,0-0.02-0.01-0.03-0.02l-1.72-2
				c-0.01-0.01-0.02-0.02-0.02-0.04c0-0.01,0-0.03,0.01-0.05c0.01-0.02,0.02-0.04,0.04-0.06c0.02-0.02,0.05-0.04,0.08-0.07
				c0.03-0.03,0.06-0.05,0.08-0.07c0.02-0.02,0.04-0.03,0.06-0.03c0.02,0,0.03,0,0.04,0c0.01,0,0.02,0.01,0.03,0.02l0.25,0.29
				c-0.01-0.13-0.02-0.24-0.01-0.33c0-0.09,0.02-0.17,0.03-0.24c0.02-0.07,0.04-0.12,0.08-0.17c0.03-0.05,0.07-0.09,0.11-0.13
				c0.02-0.02,0.04-0.03,0.07-0.05c0.03-0.02,0.06-0.04,0.09-0.05c0.03-0.02,0.06-0.03,0.09-0.04c0.03-0.01,0.05-0.02,0.06-0.02
				c0.02,0,0.03,0,0.04,0.01c0.01,0,0.02,0.01,0.03,0.02c0.01,0.01,0.03,0.02,0.04,0.04C67.46,69.68,67.49,69.7,67.52,69.74z"/>
			<path class="st1" d="M71.36,69.4c0.01,0.01,0.02,0.02,0.02,0.04c0,0.01,0,0.03-0.01,0.05c-0.01,0.02-0.02,0.04-0.04,0.06
				c-0.02,0.02-0.05,0.05-0.08,0.09c-0.03,0.03-0.06,0.06-0.09,0.08c-0.02,0.02-0.05,0.03-0.06,0.04c-0.02,0.01-0.03,0.01-0.05,0.01
				s-0.03-0.01-0.04-0.02l-1.1-1.08c-0.11-0.11-0.2-0.18-0.28-0.23c-0.08-0.05-0.16-0.08-0.24-0.09c-0.08-0.01-0.16-0.01-0.23,0.02
				s-0.15,0.07-0.21,0.14c-0.08,0.09-0.14,0.2-0.16,0.35s-0.02,0.33,0,0.54l1.31,1.29c0.01,0.01,0.02,0.02,0.02,0.04
				c0,0.01,0,0.03-0.01,0.05s-0.02,0.04-0.04,0.06s-0.05,0.05-0.08,0.09c-0.03,0.03-0.06,0.06-0.09,0.08
				c-0.02,0.02-0.05,0.03-0.06,0.04s-0.03,0.01-0.05,0.01c-0.01,0-0.02-0.01-0.04-0.02l-1.88-1.85c-0.01-0.01-0.02-0.02-0.02-0.03
				s0-0.03,0-0.05c0.01-0.02,0.02-0.04,0.03-0.06s0.04-0.05,0.07-0.08c0.03-0.03,0.06-0.06,0.08-0.07s0.04-0.03,0.06-0.03
				c0.02,0,0.03-0.01,0.04,0c0.01,0,0.02,0.01,0.04,0.02l0.25,0.25c-0.01-0.22,0-0.41,0.05-0.57s0.13-0.29,0.23-0.4
				c0.12-0.12,0.25-0.21,0.38-0.25c0.13-0.04,0.25-0.06,0.37-0.04s0.24,0.06,0.36,0.13c0.12,0.07,0.24,0.17,0.38,0.3L71.36,69.4z"/>
			<path class="st1" d="M69.81,65.81c0.09,0.07,0.13,0.14,0.13,0.2c0,0.06-0.03,0.13-0.11,0.22c-0.07,0.09-0.14,0.13-0.2,0.14
				c-0.06,0.01-0.13-0.03-0.21-0.1c-0.09-0.07-0.13-0.14-0.13-0.2c0-0.06,0.03-0.13,0.11-0.22c0.07-0.09,0.14-0.13,0.2-0.14
				S69.72,65.73,69.81,65.81z M72.45,68.15c0.01,0.01,0.02,0.02,0.02,0.03c0,0.01,0,0.03,0,0.05c-0.01,0.02-0.02,0.04-0.03,0.07
				c-0.02,0.03-0.04,0.06-0.07,0.1c-0.03,0.04-0.06,0.06-0.08,0.08s-0.04,0.04-0.06,0.04c-0.02,0.01-0.03,0.01-0.05,0.01
				c-0.01,0-0.02-0.01-0.04-0.02l-2-1.72c-0.01-0.01-0.02-0.02-0.02-0.03s0-0.03,0-0.05c0.01-0.02,0.02-0.04,0.04-0.07
				c0.02-0.03,0.04-0.06,0.07-0.09c0.03-0.04,0.06-0.07,0.08-0.09c0.02-0.02,0.04-0.04,0.06-0.04c0.02-0.01,0.03-0.01,0.05-0.01
				c0.01,0,0.03,0.01,0.04,0.02L72.45,68.15z"/>
			<path class="st1" d="M74.57,65.42c0.01,0.01,0.02,0.02,0.02,0.03s0,0.03,0,0.05c0,0.02-0.01,0.04-0.03,0.07
				c-0.02,0.03-0.04,0.06-0.06,0.1c-0.03,0.04-0.05,0.07-0.08,0.09c-0.02,0.02-0.04,0.04-0.06,0.05c-0.02,0.01-0.03,0.01-0.04,0.01
				c-0.01,0-0.03,0-0.04-0.01l-1.24-0.92c-0.12-0.09-0.23-0.15-0.31-0.19c-0.09-0.04-0.17-0.06-0.25-0.06s-0.16,0.01-0.23,0.05
				s-0.13,0.09-0.19,0.17c-0.07,0.1-0.11,0.22-0.11,0.37c0,0.15,0.02,0.33,0.08,0.53l1.48,1.1c0.01,0.01,0.02,0.02,0.02,0.03
				s0,0.03,0,0.05c0,0.02-0.01,0.04-0.03,0.07s-0.04,0.06-0.07,0.1c-0.03,0.04-0.05,0.07-0.07,0.09c-0.02,0.02-0.04,0.04-0.06,0.05
				c-0.02,0.01-0.03,0.02-0.05,0.01s-0.02-0.01-0.04-0.02l-2.12-1.57c-0.01-0.01-0.02-0.02-0.03-0.03c-0.01-0.01-0.01-0.03,0-0.05
				c0-0.02,0.01-0.04,0.03-0.06c0.01-0.02,0.03-0.05,0.06-0.09c0.03-0.03,0.05-0.06,0.07-0.08c0.02-0.02,0.04-0.03,0.05-0.04
				s0.03-0.01,0.04-0.01s0.03,0.01,0.04,0.02l0.28,0.21c-0.04-0.22-0.05-0.41-0.03-0.57c0.03-0.16,0.08-0.31,0.17-0.43
				c0.1-0.14,0.22-0.24,0.34-0.3c0.12-0.06,0.24-0.09,0.37-0.09c0.12,0,0.25,0.03,0.38,0.08c0.13,0.05,0.27,0.14,0.42,0.25
				L74.57,65.42z"/>
			<path class="st1" d="M74.26,61.2c0.06,0.04,0.1,0.07,0.11,0.1s0.02,0.06,0,0.08l-0.2,0.32c0.1-0.02,0.19-0.02,0.27,0
				c0.09,0.02,0.17,0.06,0.25,0.1c0.13,0.08,0.23,0.17,0.31,0.27c0.07,0.1,0.12,0.21,0.14,0.33c0.02,0.12,0.02,0.24-0.01,0.37
				c-0.03,0.13-0.08,0.26-0.16,0.39c-0.06,0.09-0.12,0.17-0.2,0.24c-0.07,0.07-0.14,0.11-0.21,0.14c0.01,0.05,0.03,0.09,0.06,0.14
				c0.03,0.04,0.06,0.08,0.12,0.11c0.06,0.04,0.12,0.04,0.19,0.01s0.14-0.09,0.19-0.18l0.38-0.57c0.07-0.11,0.15-0.2,0.23-0.28
				c0.08-0.08,0.17-0.13,0.27-0.17s0.19-0.05,0.29-0.05c0.1,0.01,0.2,0.04,0.29,0.1c0.1,0.06,0.19,0.14,0.26,0.25
				c0.07,0.1,0.11,0.22,0.12,0.35c0.02,0.13,0,0.28-0.04,0.44c-0.04,0.16-0.12,0.34-0.24,0.53c-0.11,0.18-0.22,0.33-0.33,0.44
				c-0.11,0.11-0.21,0.19-0.32,0.24c-0.1,0.05-0.2,0.07-0.3,0.06c-0.1-0.01-0.19-0.04-0.27-0.09c-0.05-0.03-0.1-0.07-0.15-0.12
				s-0.08-0.1-0.11-0.15c-0.03-0.06-0.05-0.12-0.07-0.18s-0.03-0.14-0.04-0.22c-0.09,0.06-0.18,0.08-0.27,0.08
				c-0.09,0-0.17-0.02-0.24-0.07c-0.1-0.06-0.18-0.14-0.23-0.23c-0.05-0.09-0.09-0.19-0.12-0.29c-0.09,0.01-0.19,0.01-0.28,0
				c-0.1-0.02-0.2-0.06-0.31-0.13c-0.13-0.08-0.23-0.17-0.31-0.28c-0.07-0.11-0.12-0.22-0.15-0.34c-0.02-0.12-0.02-0.24,0.01-0.37
				c0.03-0.13,0.08-0.26,0.16-0.39c0.04-0.07,0.08-0.13,0.13-0.18c0.04-0.05,0.09-0.1,0.13-0.15l0.42-0.68
				c0.02-0.03,0.04-0.04,0.08-0.04C74.15,61.15,74.2,61.16,74.26,61.2z M74.45,62.21c-0.15-0.09-0.3-0.12-0.44-0.09
				c-0.14,0.03-0.25,0.12-0.35,0.28c-0.05,0.08-0.08,0.16-0.09,0.23c-0.01,0.08,0,0.15,0.02,0.21c0.02,0.07,0.06,0.13,0.11,0.19
				c0.05,0.06,0.11,0.1,0.17,0.15c0.15,0.09,0.29,0.12,0.43,0.09c0.14-0.03,0.25-0.12,0.34-0.28c0.05-0.08,0.08-0.16,0.09-0.24
				c0.01-0.08,0.01-0.15-0.02-0.21c-0.02-0.07-0.06-0.13-0.1-0.18C74.58,62.29,74.52,62.25,74.45,62.21z M76.36,63.09
				c-0.1-0.06-0.2-0.06-0.3-0.02c-0.1,0.05-0.19,0.14-0.28,0.27l-0.38,0.57c0.01,0.08,0.02,0.15,0.04,0.2s0.04,0.11,0.06,0.15
				s0.05,0.08,0.08,0.1s0.06,0.05,0.1,0.07c0.11,0.07,0.22,0.06,0.35-0.01c0.12-0.08,0.24-0.21,0.36-0.41
				c0.08-0.12,0.13-0.24,0.16-0.34c0.03-0.1,0.04-0.19,0.03-0.26s-0.03-0.14-0.07-0.2C76.47,63.17,76.42,63.12,76.36,63.09z"/>
			<path class="st1" d="M78.2,57.7c0.03,0.01,0.05,0.02,0.07,0.04c0.02,0.01,0.04,0.02,0.05,0.03c0.01,0.01,0.03,0.02,0.04,0.04
				c0.01,0.01,0.02,0.03,0.03,0.06c0.01,0.03,0.02,0.08,0.03,0.15c0.01,0.07,0.02,0.16,0.01,0.26s-0.02,0.21-0.04,0.33
				c-0.02,0.12-0.06,0.25-0.12,0.38c-0.1,0.23-0.23,0.41-0.38,0.56s-0.33,0.25-0.54,0.32c-0.2,0.06-0.43,0.08-0.67,0.06
				c-0.25-0.03-0.51-0.1-0.79-0.22c-0.29-0.13-0.53-0.28-0.72-0.45c-0.19-0.17-0.34-0.36-0.44-0.56c-0.1-0.2-0.15-0.42-0.15-0.64
				s0.05-0.45,0.15-0.68c0.04-0.1,0.1-0.19,0.16-0.28c0.06-0.09,0.12-0.16,0.19-0.23s0.13-0.12,0.19-0.17
				c0.06-0.05,0.11-0.08,0.15-0.09c0.03-0.01,0.06-0.02,0.08-0.02c0.02,0,0.03,0,0.05,0c0.02,0,0.04,0.01,0.06,0.02
				c0.02,0.01,0.05,0.02,0.08,0.03c0.04,0.02,0.07,0.03,0.09,0.05c0.02,0.01,0.04,0.03,0.06,0.04c0.01,0.01,0.02,0.03,0.03,0.04
				c0,0.01,0,0.03,0,0.04c-0.01,0.02-0.04,0.05-0.1,0.08c-0.05,0.03-0.12,0.07-0.19,0.12c-0.07,0.05-0.15,0.12-0.23,0.21
				c-0.08,0.09-0.15,0.2-0.21,0.34c-0.07,0.15-0.1,0.31-0.09,0.46c0.01,0.15,0.05,0.3,0.13,0.44c0.08,0.14,0.2,0.28,0.35,0.4
				s0.34,0.24,0.56,0.33c0.22,0.1,0.42,0.16,0.61,0.18c0.19,0.03,0.36,0.02,0.51-0.02s0.29-0.11,0.4-0.21
				c0.12-0.1,0.21-0.24,0.28-0.4c0.06-0.14,0.1-0.27,0.11-0.39c0.01-0.12,0.01-0.22,0-0.31c-0.01-0.09-0.02-0.17-0.04-0.23
				c-0.01-0.06-0.01-0.11,0-0.13c0.01-0.01,0.01-0.02,0.02-0.03c0.01-0.01,0.02-0.01,0.04-0.01s0.04,0.01,0.07,0.02
				C78.12,57.67,78.15,57.68,78.2,57.7z"/>
			<path class="st1" d="M78.29,54.39c0.07,0.02,0.12,0.06,0.14,0.11c0.02,0.05,0.02,0.09,0,0.14l-0.55,1.65
				c0.14,0.05,0.27,0.07,0.39,0.08s0.23-0.01,0.33-0.04c0.1-0.04,0.19-0.1,0.27-0.19s0.14-0.21,0.19-0.36
				c0.04-0.12,0.06-0.23,0.08-0.33c0.01-0.1,0.02-0.19,0.01-0.26c0-0.08,0-0.14-0.01-0.19s0-0.09,0-0.11c0-0.01,0.01-0.02,0.02-0.03
				c0.01-0.01,0.02-0.01,0.04-0.01s0.03,0,0.06,0.01c0.02,0,0.05,0.01,0.09,0.02c0.02,0.01,0.04,0.02,0.06,0.02
				c0.02,0.01,0.03,0.02,0.04,0.02c0.01,0.01,0.02,0.02,0.03,0.03c0.01,0.01,0.02,0.02,0.02,0.04s0.01,0.05,0.02,0.11
				s0.01,0.13,0,0.22c0,0.09-0.01,0.19-0.03,0.3c-0.02,0.11-0.05,0.23-0.08,0.34c-0.07,0.21-0.16,0.38-0.27,0.51
				c-0.11,0.14-0.24,0.24-0.39,0.31c-0.15,0.07-0.32,0.1-0.5,0.1s-0.4-0.04-0.62-0.12c-0.21-0.07-0.4-0.16-0.55-0.28
				c-0.15-0.11-0.27-0.24-0.36-0.38s-0.13-0.3-0.15-0.47c-0.01-0.17,0.01-0.35,0.07-0.53c0.06-0.2,0.15-0.35,0.26-0.47
				c0.11-0.12,0.23-0.2,0.37-0.26c0.14-0.05,0.28-0.08,0.44-0.07c0.16,0.01,0.32,0.04,0.48,0.09L78.29,54.39z M78,54.81
				c-0.24-0.09-0.45-0.09-0.62-0.03c-0.17,0.07-0.3,0.21-0.37,0.43c-0.04,0.11-0.05,0.22-0.04,0.32c0.01,0.1,0.05,0.19,0.1,0.27
				s0.12,0.15,0.2,0.22s0.18,0.11,0.28,0.15L78,54.81z"/>
			<path class="st1" d="M80.45,51.58c0.02,0,0.03,0.01,0.04,0.02c0.01,0.01,0.02,0.02,0.02,0.04c0,0.02,0,0.04,0,0.08
				c0,0.03-0.01,0.07-0.02,0.12c-0.01,0.05-0.02,0.09-0.03,0.12c-0.01,0.03-0.02,0.05-0.03,0.07c-0.01,0.02-0.02,0.03-0.04,0.03
				s-0.03,0.01-0.04,0l-1.5-0.34c-0.15-0.03-0.27-0.05-0.36-0.05s-0.18,0.02-0.25,0.05c-0.07,0.03-0.14,0.07-0.19,0.14
				c-0.05,0.06-0.09,0.14-0.11,0.23c-0.03,0.12-0.01,0.25,0.04,0.38c0.06,0.14,0.15,0.29,0.28,0.46l1.8,0.41
				c0.02,0,0.03,0.01,0.04,0.02c0.01,0.01,0.01,0.02,0.02,0.04c0,0.02,0,0.04,0,0.08c0,0.03-0.01,0.07-0.02,0.12
				c-0.01,0.05-0.02,0.08-0.03,0.11s-0.02,0.05-0.03,0.07c-0.01,0.02-0.02,0.03-0.04,0.03c-0.01,0-0.03,0-0.04,0l-2.57-0.59
				c-0.02,0-0.03-0.01-0.04-0.02c-0.01-0.01-0.02-0.02-0.02-0.04c0-0.02-0.01-0.04,0-0.07c0-0.03,0.01-0.06,0.02-0.11
				c0.01-0.04,0.02-0.08,0.03-0.1s0.02-0.05,0.03-0.06c0.01-0.01,0.02-0.02,0.04-0.03c0.01,0,0.03,0,0.04,0l0.34,0.08
				c-0.13-0.18-0.21-0.35-0.26-0.51c-0.04-0.16-0.05-0.31-0.01-0.46c0.04-0.17,0.1-0.31,0.19-0.41c0.08-0.1,0.18-0.18,0.3-0.23
				s0.24-0.08,0.38-0.08c0.14,0,0.3,0.02,0.48,0.06L80.45,51.58z"/>
			<path class="st1" d="M80.65,49.08c0.06,0.01,0.1,0.02,0.13,0.03c0.03,0.01,0.05,0.03,0.07,0.05c0.01,0.02,0.02,0.04,0.03,0.08
				c0.01,0.03,0.02,0.07,0.02,0.11c0,0.04,0,0.08,0,0.13c0,0.05,0,0.09-0.01,0.13c-0.02,0.14-0.06,0.25-0.11,0.34
				c-0.05,0.09-0.12,0.16-0.2,0.21c-0.08,0.05-0.18,0.08-0.3,0.09c-0.12,0.01-0.25,0.01-0.4-0.02l-1.52-0.23l-0.05,0.37
				c0,0.03-0.02,0.05-0.06,0.06c-0.03,0.01-0.08,0.01-0.15,0c-0.04-0.01-0.07-0.01-0.09-0.02c-0.02-0.01-0.04-0.02-0.06-0.03
				s-0.03-0.02-0.03-0.04s-0.01-0.03,0-0.04l0.05-0.36l-0.62-0.09c-0.01,0-0.03-0.01-0.04-0.02c-0.01-0.01-0.02-0.02-0.02-0.04
				c-0.01-0.02-0.01-0.04-0.01-0.08c0-0.03,0-0.07,0.01-0.12c0.01-0.05,0.02-0.09,0.02-0.12c0.01-0.03,0.02-0.05,0.03-0.07
				s0.02-0.03,0.04-0.03c0.01-0.01,0.03-0.01,0.04-0.01l0.62,0.09l0.1-0.67c0-0.02,0.01-0.03,0.02-0.04
				c0.01-0.01,0.02-0.02,0.04-0.03s0.04-0.01,0.06-0.01c0.03,0,0.06,0,0.09,0.01c0.07,0.01,0.12,0.03,0.15,0.05s0.04,0.05,0.04,0.08
				l-0.1,0.67l1.46,0.22c0.18,0.03,0.32,0.02,0.42-0.02s0.16-0.13,0.18-0.27c0.01-0.04,0.01-0.08,0-0.12s-0.01-0.07-0.01-0.1
				c-0.01-0.03-0.01-0.05-0.02-0.07s-0.01-0.04-0.01-0.05c0-0.01,0.01-0.02,0.01-0.03c0.01-0.01,0.02-0.01,0.03-0.02
				c0.01,0,0.03,0,0.06,0C80.58,49.07,80.61,49.07,80.65,49.08z"/>
			<path class="st1" d="M78.61,46.44c0.04,0,0.08,0.01,0.11,0.01c0.03,0,0.05,0.01,0.07,0.02c0.02,0.01,0.03,0.02,0.04,0.03
				c0.01,0.01,0.01,0.02,0.01,0.04c0,0.02-0.01,0.03-0.02,0.06c-0.01,0.02-0.02,0.05-0.03,0.07s-0.02,0.06-0.03,0.09
				s-0.02,0.07-0.02,0.11c0,0.05,0,0.1,0.02,0.15s0.04,0.1,0.08,0.16c0.04,0.06,0.1,0.11,0.16,0.18c0.07,0.06,0.15,0.13,0.26,0.21
				l1.73,0.15c0.02,0,0.03,0.01,0.04,0.02c0.01,0.01,0.02,0.02,0.02,0.04c0.01,0.02,0.01,0.04,0.01,0.07c0,0.03,0,0.07,0,0.12
				c0,0.05-0.01,0.09-0.02,0.12s-0.01,0.06-0.02,0.07c-0.01,0.02-0.02,0.03-0.03,0.04c-0.01,0.01-0.02,0.01-0.04,0.01l-2.63-0.22
				c-0.02,0-0.03-0.01-0.04-0.01c-0.01-0.01-0.02-0.02-0.03-0.04c-0.01-0.02-0.01-0.04-0.01-0.07c0-0.03,0-0.06,0-0.11
				c0-0.04,0.01-0.08,0.01-0.11s0.01-0.05,0.02-0.06c0.01-0.01,0.02-0.02,0.03-0.03s0.02-0.01,0.04-0.01l0.38,0.03
				c-0.1-0.08-0.18-0.16-0.24-0.22c-0.06-0.07-0.11-0.13-0.14-0.19s-0.05-0.12-0.06-0.17c-0.01-0.06-0.01-0.11-0.01-0.17
				c0-0.03,0.01-0.05,0.01-0.09c0.01-0.03,0.01-0.06,0.02-0.1s0.02-0.07,0.03-0.09s0.02-0.05,0.03-0.06
				c0.01-0.01,0.02-0.02,0.03-0.02c0.01,0,0.02-0.01,0.03-0.01c0.01,0,0.03,0,0.06,0C78.53,46.43,78.57,46.43,78.61,46.44z"/>
			<path class="st1" d="M79.7,43.6c0.08,0,0.13,0.02,0.16,0.06c0.03,0.04,0.05,0.08,0.05,0.13l-0.03,1.74c0.15,0,0.28-0.01,0.4-0.04
				s0.22-0.08,0.3-0.14c0.08-0.07,0.15-0.16,0.2-0.27c0.05-0.11,0.07-0.24,0.07-0.4c0-0.13-0.01-0.24-0.02-0.34
				c-0.02-0.1-0.04-0.18-0.06-0.26c-0.02-0.07-0.05-0.13-0.07-0.18c-0.02-0.05-0.03-0.08-0.03-0.1c0-0.01,0-0.03,0.01-0.04
				c0.01-0.01,0.02-0.02,0.03-0.02c0.01-0.01,0.03-0.01,0.06-0.01s0.05,0,0.09,0c0.03,0,0.05,0,0.07,0c0.02,0,0.04,0,0.05,0.01
				c0.01,0,0.03,0.01,0.04,0.02c0.01,0.01,0.02,0.02,0.03,0.03c0.01,0.01,0.03,0.04,0.05,0.1s0.05,0.12,0.07,0.21
				c0.02,0.08,0.04,0.18,0.06,0.29c0.02,0.11,0.02,0.23,0.02,0.35c0,0.22-0.04,0.41-0.1,0.57s-0.16,0.3-0.28,0.41
				c-0.12,0.11-0.27,0.19-0.45,0.24s-0.39,0.08-0.63,0.07c-0.23,0-0.43-0.04-0.61-0.1s-0.33-0.15-0.46-0.26s-0.22-0.25-0.28-0.4
				c-0.06-0.16-0.1-0.33-0.09-0.53c0-0.21,0.04-0.38,0.11-0.53c0.07-0.14,0.16-0.26,0.27-0.35c0.11-0.09,0.25-0.16,0.4-0.2
				s0.31-0.06,0.49-0.06L79.7,43.6z M79.55,44.08c-0.25-0.01-0.45,0.04-0.6,0.16c-0.15,0.12-0.22,0.29-0.23,0.53
				c0,0.12,0.02,0.23,0.06,0.32c0.04,0.09,0.1,0.17,0.18,0.23s0.16,0.11,0.26,0.15c0.1,0.03,0.2,0.06,0.31,0.06L79.55,44.08z"/>
		</g>
	</g>
	<circle class="st2" cx="44.47" cy="44.47" r="29.47"/>
	<g>
		<path class="st1" d="M8.88,37.4h1.42l0.44-1.35l0.44,1.35h1.42l-1.15,0.84l0.44,1.35l-1.15-0.84l-1.15,0.84l0.44-1.35L8.88,37.4z"
			/>
	</g>
	<g>
		<path class="st3" d="M21.78,33.93h16.48l5.1-15.68l5.09,15.68h16.48l-13.32,9.7l5.09,15.68l-13.35-9.7L30,59.32l5.09-15.68
			L21.78,33.93z"/>
	</g>
	<g>
		<path class="st1" d="M76.45,37.4h1.42l0.44-1.35l0.44,1.35h1.42l-1.15,0.84l0.44,1.35l-1.15-0.84l-1.15,0.84l0.44-1.35L76.45,37.4
			z"/>
	</g>
	<g>
		<path class="st1" d="M39.51,67.44c-0.14,0.25-0.28,0.41-0.41,0.5c-0.09,0.06-0.24,0.12-0.46,0.18c0.07,0.31,0.26,0.47,0.59,0.47
			c0.08,0,0.18-0.01,0.3-0.03l-0.09,0.72c-0.21,0.09-0.4,0.14-0.56,0.14c-0.49,0-0.74-0.39-0.77-1.18
			c-0.04,0.01-0.09,0.01-0.13,0.01c-0.23,0-0.43-0.09-0.59-0.27c-0.1-0.11-0.2-0.29-0.3-0.52s-0.14-0.42-0.14-0.57
			c0-0.19,0.05-0.34,0.16-0.47s0.25-0.19,0.43-0.19c0.36,0,0.61,0.23,0.75,0.69c0.01,0.04,0.03,0.1,0.05,0.2
			c0.09-0.02,0.23-0.11,0.43-0.27c0.04-0.03,0.14-0.17,0.31-0.41c0.11-0.16,0.17-0.38,0.17-0.67c0-0.25-0.05-0.49-0.15-0.7
			c-0.13-0.26-0.3-0.4-0.53-0.4c-0.41,0.01-0.81,0.19-1.21,0.54l-0.38-0.96c0.54-0.31,1.02-0.47,1.45-0.47
			c0.39,0,0.68,0.1,0.87,0.31c0.35,0.39,0.53,1.01,0.53,1.87C39.83,66.6,39.72,67.09,39.51,67.44z"/>
		<path class="st1" d="M41.78,68.31c-0.49-0.04-0.85-0.36-1.08-0.96c-0.17-0.44-0.25-0.95-0.25-1.53c0-0.57,0.12-1.05,0.37-1.43
			c0.29-0.46,0.71-0.68,1.25-0.68c0.45,0,0.79,0.26,1.01,0.79c0.15,0.35,0.24,0.81,0.27,1.36c0.02,0.44-0.02,0.85-0.13,1.23
			s-0.28,0.68-0.51,0.89C42.45,68.23,42.14,68.34,41.78,68.31z M42.38,65.34c-0.23-0.55-0.48-0.81-0.75-0.78
			c-0.18,0.02-0.32,0.15-0.42,0.4c-0.08,0.2-0.12,0.4-0.12,0.61c0.01,0.34,0.1,0.69,0.25,1.04c0.2,0.46,0.47,0.71,0.79,0.75
			c0.16,0.02,0.29-0.08,0.4-0.3c0.09-0.18,0.13-0.36,0.13-0.53C42.66,66.19,42.57,65.8,42.38,65.34z"/>
		<path class="st1" d="M47.09,68.96c-0.22,0.07-0.39,0.09-0.51,0.05c-0.35-0.1-0.52-0.32-0.52-0.68c0-0.1,0.02-0.22,0.05-0.34
			c-0.14,0.04-0.28,0.05-0.4,0.05c-0.66,0-1.08-0.32-1.27-0.97c-0.04-0.15-0.06-0.27-0.06-0.36c0-0.23,0.1-0.48,0.31-0.74
			c-0.39-0.2-0.58-0.52-0.58-0.95c0-0.28,0.08-0.51,0.23-0.71c0.29-0.38,0.75-0.57,1.39-0.57c0.14,0,0.37,0.02,0.71,0.05l-0.05,0.8
			c-0.36-0.09-0.65-0.13-0.88-0.13c-0.19,0-0.36,0.04-0.51,0.11c-0.18,0.1-0.27,0.23-0.27,0.4c0,0.27,0.17,0.41,0.5,0.41
			c0.25,0,0.55-0.09,0.9-0.28l0.17,0.74c-0.28,0.19-0.63,0.28-1.04,0.26c-0.07,0.05-0.1,0.17-0.1,0.34c0,0.45,0.18,0.67,0.53,0.67
			c0.13,0,0.27-0.03,0.4-0.1c-0.01-0.07-0.01-0.13-0.01-0.21c0-0.19,0.05-0.34,0.16-0.46c0.11-0.12,0.25-0.18,0.44-0.18
			c0.18,0,0.32,0.08,0.43,0.24c0.1,0.14,0.14,0.3,0.14,0.5c0,0.46-0.21,0.79-0.62,0.99c-0.02,0.07-0.03,0.13-0.03,0.18
			c0,0.23,0.13,0.35,0.39,0.35c0.11,0,0.27-0.04,0.48-0.11L47.09,68.96z"/>
		<path class="st1" d="M50.74,68.88l-0.55-0.34c0.25-0.17,0.37-0.33,0.34-0.48c-0.03-0.15-0.13-0.22-0.31-0.2
			c-0.13,0.01-0.34,0.08-0.63,0.21c-0.26,0.12-0.48,0.18-0.66,0.18c-0.64,0-0.96-0.44-0.96-1.31v-3.23L49,64.19v0.97
			c0.18,0.2,0.29,0.32,0.34,0.36c0.16,0.14,0.3,0.21,0.42,0.21c0.3,0,0.45-0.13,0.45-0.4l-0.01-1.7l1.05,0.47v1.12
			c0,0.13-0.06,0.28-0.18,0.46c-0.29,0.44-0.76,0.67-1.4,0.67c-0.24,0-0.46-0.06-0.67-0.17v0.85c0,0.37,0.1,0.56,0.31,0.56
			c0.12,0,0.34-0.06,0.65-0.18c0.31-0.12,0.56-0.18,0.72-0.18c0.23,0,0.42,0.08,0.56,0.23c0.15,0.16,0.22,0.35,0.22,0.58
			C51.47,68.43,51.22,68.71,50.74,68.88z"/>
	</g>
</g>
<g>
	<g>
		<path class="st1" d="M24.8,53.71c-0.01-0.11-0.01-0.21-0.03-0.32c-0.04-0.18,0.01-0.34,0.09-0.49c0.13-0.24,0.3-0.31,0.56-0.23
			c0.31,0.1,0.55,0.3,0.76,0.52c0.41,0.43,0.8,0.86,1.18,1.31c0.85,1.02,1.68,2.05,2.52,3.08c0.1,0.12,0.19,0.26,0.29,0.38
			c0.35,0.43,0.47,0.95,0.6,1.47c0.23,0.93,0.34,1.87,0.27,2.83c-0.03,0.4-0.12,0.8-0.19,1.2c-0.13,0.75-0.26,1.49-0.39,2.24
			c-0.01,0.04-0.02,0.08-0.04,0.16c-1.58-0.05-3.16-0.11-4.75-0.16c-0.03-0.25-0.06-0.47-0.09-0.69c-0.09-0.77-0.17-1.55-0.27-2.32
			c-0.07-0.52-0.16-1.03-0.28-1.54c-0.06-0.24-0.18-0.49-0.32-0.69c-0.74-1.08-1.5-2.14-2.24-3.21c-0.12-0.17-0.22-0.34-0.34-0.5
			c-0.43-0.56-0.62-1.21-0.72-1.9c-0.16-1.07-0.12-2.13,0.04-3.19c0.14-0.92,0.26-1.84,0.41-2.76c0.13-0.78,0.25-1.56,0.46-2.32
			c0.21-0.79,0.48-1.57,0.88-2.3c0.08-0.14,0.17-0.28,0.27-0.39c0.16-0.18,0.31-0.19,0.51-0.06c0.24,0.15,0.33,0.39,0.38,0.64
			c0.05,0.3,0.09,0.61,0.12,0.92c0.06,0.6,0.1,1.19,0.15,1.79c0.05,0.62,0.11,1.23,0.17,1.85c0.03,0.3,0.05,0.6,0.08,0.89
			c0.05,0.55,0.08,1.11,0.14,1.66c0.03,0.28,0.12,0.56,0.19,0.87c-0.23,0.06-0.42,0.21-0.48,0.45
			C24.64,53.18,24.64,53.45,24.8,53.71c0.03,0.04,0.05,0.08,0.07,0.12c0.01,0.03,0.01,0.06,0,0.02c0.02,0.03,0.01,0.01-0.01-0.01
			C24.85,53.8,24.82,53.75,24.8,53.71z M25.13,54.35C25.13,54.35,25.12,54.35,25.13,54.35c-0.03-0.04-0.05-0.08-0.07-0.12
			c-0.01-0.01-0.02-0.02-0.02-0.03c0,0,0.01,0.01,0.02,0.02C25.09,54.26,25.11,54.3,25.13,54.35z M24.97,54.05l-0.01,0.02l0.01,0
			L24.97,54.05z"/>
		<path class="st1" d="M61.92,53.7c0.16-0.22,0.15-0.46,0.12-0.7c-0.04-0.27-0.2-0.46-0.5-0.54c0.02-0.09,0.04-0.17,0.06-0.25
			c0.12-0.4,0.16-0.82,0.19-1.23c0.06-0.7,0.12-1.41,0.18-2.11c0.05-0.61,0.09-1.21,0.15-1.82c0.08-0.84,0.15-1.68,0.25-2.52
			c0.02-0.19,0.11-0.39,0.22-0.56c0.2-0.31,0.53-0.32,0.74-0.02c0.21,0.32,0.38,0.67,0.53,1.02c0.5,1.14,0.77,2.35,0.96,3.58
			c0.17,1.07,0.35,2.13,0.49,3.2c0.15,1.13,0.19,2.26-0.04,3.38c-0.11,0.54-0.28,1.05-0.6,1.51c-0.8,1.13-1.56,2.28-2.38,3.39
			c-0.4,0.55-0.66,1.14-0.75,1.81c-0.11,0.81-0.23,1.63-0.33,2.44c-0.06,0.45-0.1,0.91-0.16,1.4c-0.08,0.01-0.16,0.03-0.24,0.04
			c-0.88,0.03-1.75,0.05-2.63,0.08c-0.51,0.02-1.03,0.04-1.54,0.06c-0.12,0-0.23,0-0.36,0c-0.07-0.43-0.14-0.84-0.21-1.25
			c-0.09-0.52-0.18-1.03-0.29-1.54c-0.15-0.76-0.14-1.53-0.06-2.3c0.06-0.59,0.19-1.16,0.33-1.73c0.11-0.43,0.29-0.81,0.55-1.14
			c0.43-0.54,0.88-1.08,1.32-1.62c0.57-0.7,1.13-1.4,1.7-2.09c0.38-0.46,0.77-0.92,1.26-1.28c0.14-0.1,0.29-0.18,0.45-0.24
			c0.21-0.08,0.37-0.01,0.49,0.18c0.1,0.17,0.16,0.34,0.12,0.55C61.94,53.49,61.94,53.6,61.92,53.7c-0.02,0.05-0.04,0.09-0.06,0.14
			c-0.02,0.04-0.04,0.08-0.07,0.12c-0.01,0.03-0.03,0.05-0.01,0.02c-0.01,0.04,0,0.01,0-0.02c0.02-0.04,0.04-0.08,0.07-0.12
			C61.88,53.79,61.9,53.75,61.92,53.7z M61.67,54.22c0.01-0.01,0.01-0.01,0.02-0.02C61.68,54.2,61.68,54.21,61.67,54.22
			c0,0.01-0.01,0.02-0.01,0.02C61.66,54.23,61.66,54.22,61.67,54.22z"/>
	</g>
</g>
<g>
	<path class="st1" d="M46.21,46.66c0.01-0.19-0.06-0.37-0.1-0.55c-0.04-0.18-0.07-0.35-0.13-0.53c-0.05-0.16-0.09-0.33-0.15-0.48
		c-0.03-0.08-0.06-0.17-0.09-0.25c-0.04-0.1-0.08-0.21-0.11-0.31c-0.05-0.14-0.13-0.28-0.2-0.42c-0.06-0.12-0.11-0.25-0.19-0.37
		c-0.19-0.31-0.38-0.62-0.62-0.89c-0.09-0.1-0.17-0.2-0.26-0.29c-0.19-0.2-0.39-0.39-0.6-0.56c-0.13-0.11-0.27-0.21-0.41-0.31
		c-0.09-0.06-0.19-0.11-0.28-0.17c-0.13-0.08-0.26-0.15-0.39-0.22c-0.16-0.08-0.32-0.17-0.49-0.24C42.12,41.05,42.06,41.03,42,41
		c-0.16-0.06-0.32-0.14-0.48-0.19c-0.19-0.06-0.39-0.12-0.58-0.17c-0.05-0.01-0.11-0.01-0.15-0.03c-0.14-0.07-0.3-0.05-0.44-0.11
		c-0.13-0.05-0.28-0.05-0.42-0.08c-0.16-0.03-0.31-0.07-0.47-0.1c-0.05-0.01-0.09-0.02-0.14-0.03c-0.1-0.03-0.21-0.07-0.31-0.1
		c-0.12-0.04-0.23-0.07-0.35-0.11c-0.08-0.03-0.15-0.05-0.22-0.09c-0.16-0.07-0.31-0.14-0.47-0.21c-0.13-0.06-0.25-0.12-0.37-0.19
		c-0.15-0.09-0.31-0.16-0.46-0.27c-0.13-0.09-0.28-0.16-0.4-0.25c-0.18-0.13-0.34-0.28-0.51-0.42c-0.28-0.23-0.52-0.5-0.75-0.77
		c-0.09-0.11-0.16-0.23-0.24-0.34c-0.17-0.23-0.31-0.48-0.43-0.74c-0.07-0.15-0.17-0.28-0.29-0.39c-0.16-0.14-0.35-0.22-0.56-0.24
		c-0.08-0.01-0.16,0.01-0.24,0c-0.11-0.01-0.21,0.04-0.31,0.08c-0.08,0.03-0.15,0.08-0.22,0.13c-0.19,0.14-0.31,0.33-0.38,0.55
		c-0.04,0.12-0.02,0.25-0.03,0.37c-0.01,0.16,0.05,0.31,0.13,0.45c0.08,0.14,0.17,0.27,0.26,0.4c0.02,0.04,0.05,0.07,0.08,0.11
		c0.06,0.1,0.12,0.2,0.19,0.29c0.17,0.23,0.34,0.45,0.52,0.67c0.09,0.11,0.19,0.22,0.28,0.32c0.13,0.14,0.27,0.29,0.41,0.43
		c0.13,0.13,0.27,0.26,0.41,0.39c0.15,0.13,0.31,0.26,0.47,0.38c0.14,0.11,0.29,0.21,0.44,0.31c0.14,0.09,0.28,0.18,0.42,0.26
		c0.11,0.07,0.23,0.12,0.34,0.18c0.14,0.07,0.27,0.14,0.41,0.2c0.19,0.08,0.38,0.15,0.58,0.23c0,0.07,0,0.12,0,0.18
		c0,1.62,0,3.24,0,4.86c0,0.07,0,0.14,0.04,0.21c0.17,0.02,4.87,0.02,4.98-0.01c0-0.52,0-1.05,0-1.58c0-0.53,0-1.05,0-1.59
		c0.02,0.01,0.04,0.01,0.05,0.02c0.06,0.06,0.12,0.12,0.18,0.19c0.15,0.18,0.31,0.35,0.43,0.55c0.1,0.15,0.19,0.31,0.27,0.47
		c0.07,0.13,0.11,0.27,0.18,0.39c0.04,0.07,0.05,0.14,0.08,0.21c0.04,0.1,0.09,0.2,0.11,0.3c0.02,0.13,0.1,0.25,0.1,0.39
		c0,0.01,0.01,0.02,0.01,0.02c0.02,0.07,0.04,0.13,0.05,0.2c0.02,0.09,0.02,0.18,0.03,0.27c0.01,0.04,0.03,0.09,0.04,0.13
		c0.02,0.01,0.03,0.01,0.04,0.01c0.65,0,1.3,0,1.94,0c0,0,0.01,0,0.01-0.01c0,0,0.01-0.01,0.02-0.02c0-0.13-0.02-0.27-0.06-0.41
		C46.22,46.71,46.21,46.68,46.21,46.66z"/>
	<path class="st1" d="M53.94,37.66c-0.03-0.2-0.11-0.36-0.24-0.5c-0.13-0.14-0.29-0.24-0.47-0.28c-0.13-0.03-0.25-0.06-0.39-0.02
		c-0.12,0.03-0.24,0.07-0.35,0.13c-0.19,0.1-0.31,0.26-0.4,0.44c-0.04,0.08-0.08,0.16-0.12,0.24c-0.05,0.1-0.11,0.19-0.16,0.28
		c-0.08,0.16-0.19,0.29-0.29,0.43c-0.15,0.19-0.32,0.36-0.49,0.53c-0.16,0.16-0.33,0.31-0.52,0.44c-0.11,0.08-0.22,0.15-0.33,0.23
		c-0.21,0.14-0.43,0.27-0.65,0.38c-0.07,0.03-0.13,0.06-0.2,0.1c-0.14,0.06-0.27,0.13-0.41,0.19c-0.1,0.04-0.2,0.08-0.31,0.11
		c-0.11,0.04-0.23,0.08-0.34,0.13c-0.13,0.06-0.26,0.08-0.39,0.13c-0.13,0.05-0.27,0.07-0.4,0.11c-0.15,0.04-0.3,0.07-0.45,0.08
		c-0.07,0.01-0.13,0.05-0.2,0.05c-0.19,0.01-0.37,0.09-0.56,0.11c-0.05,0.01-0.1,0.03-0.14,0.05c-0.13,0.04-0.27,0.07-0.4,0.11
		c0,0-0.01,0-0.01,0c-0.12,0.06-0.25,0.08-0.37,0.13c-0.1,0.04-0.2,0.07-0.3,0.11c-0.17,0.08-0.34,0.16-0.53,0.24
		c0.02,0.03,0.03,0.06,0.05,0.08c0.07,0.07,0.14,0.14,0.21,0.22c0.09,0.09,0.18,0.18,0.26,0.28c0.14,0.16,0.28,0.32,0.4,0.49
		c0.12,0.17,0.22,0.35,0.34,0.52c0.15,0.2,0.25,0.43,0.36,0.65c0.07,0.14,0.14,0.28,0.2,0.42c0.07,0.17,0.13,0.34,0.2,0.52
		c0.05,0.13,0.08,0.26,0.13,0.39c0.05,0.14,0.08,0.29,0.11,0.44c0.01,0.05,0.05,0.1,0.05,0.14c0,0.16,0.08,0.29,0.09,0.44
		c0.01,0.06-0.01,0.14,0.02,0.19c0.07,0.13,0.02,0.27,0.07,0.4c0.02,0.06,0.02,0.13,0.03,0.2c0.01,0.07,0.02,0.14,0.03,0.21
		c0.02,0,0.04,0.01,0.05,0.01c0.72,0,1.45,0,2.17,0c0,0,0.01,0,0.01-0.01c0,0,0.01-0.01,0.02-0.02c0-0.04,0-0.08,0-0.13
		c0-0.84,0-1.67,0-2.51c0-0.09,0.01-0.19-0.02-0.28c-0.01-0.05,0-0.1,0-0.15c0-0.05,0.02-0.1,0.02-0.15c0-0.51,0-1.03,0-1.54
		c0-0.05,0-0.09,0-0.13c0.12-0.05,0.23-0.08,0.33-0.13c0.15-0.06,0.3-0.13,0.45-0.2c0.04-0.02,0.08-0.02,0.12-0.04
		c0.12-0.06,0.25-0.13,0.37-0.19c0.17-0.09,0.34-0.17,0.5-0.27c0.18-0.11,0.35-0.24,0.53-0.37c0.24-0.18,0.46-0.37,0.66-0.58
		c0.15-0.15,0.3-0.31,0.43-0.48c0.1-0.14,0.22-0.26,0.32-0.4c0.06-0.08,0.12-0.17,0.18-0.25c0.06-0.08,0.1-0.17,0.16-0.25
		c0.08-0.1,0.12-0.22,0.19-0.32c0.11-0.18,0.22-0.35,0.3-0.55c0.02-0.05,0.06-0.11,0.07-0.16C53.94,37.94,53.96,37.81,53.94,37.66z"
		/>
	<path class="st1" d="M38.17,38.35c0.01,0.11,0.06,0.21,0.11,0.3c0.15,0.27,0.34,0.52,0.59,0.71c0.24,0.19,0.51,0.32,0.8,0.41
		c0.05,0.01,0.11,0.01,0.15,0.03c0.07,0.03,0.13,0.03,0.2,0.03c0.07,0,0.14,0,0.23,0c0.18,0.02,0.38-0.02,0.58-0.07
		c0.17-0.05,0.33-0.12,0.49-0.21c0.2-0.11,0.37-0.25,0.52-0.41c0.15-0.16,0.27-0.34,0.36-0.53c0.1-0.19,0.16-0.39,0.19-0.59
		c0.04-0.25,0.04-0.49,0-0.74c-0.02-0.12-0.07-0.22-0.09-0.34c-0.01-0.07-0.04-0.14-0.08-0.2c-0.06-0.11-0.12-0.21-0.19-0.32
		c-0.11-0.17-0.24-0.3-0.38-0.43c-0.11-0.1-0.24-0.18-0.37-0.26c-0.13-0.08-0.28-0.13-0.43-0.19c-0.04-0.02-0.1,0-0.14-0.02
		c-0.1-0.05-0.22-0.05-0.32-0.06c-0.27-0.02-0.54,0-0.79,0.09c-0.16,0.05-0.31,0.12-0.46,0.2c-0.12,0.07-0.23,0.14-0.33,0.23
		c-0.13,0.12-0.26,0.24-0.36,0.39c-0.07,0.1-0.14,0.19-0.19,0.3c-0.05,0.11-0.11,0.23-0.14,0.35c-0.04,0.13-0.07,0.27-0.08,0.41
		c-0.02,0.27,0,0.54,0.07,0.8C38.14,38.26,38.17,38.3,38.17,38.35z"/>
	<path class="st1" d="M44.89,38.8c0.03,0.11,0.06,0.23,0.11,0.34c0.07,0.14,0.16,0.27,0.25,0.39c0.09,0.11,0.19,0.22,0.3,0.32
		c0.12,0.1,0.25,0.19,0.39,0.26c0.15,0.07,0.3,0.14,0.45,0.18c0.16,0.04,0.33,0.05,0.49,0.06c0.1,0.01,0.2-0.02,0.3-0.02
		c0.16,0.01,0.3-0.05,0.44-0.1c0.21-0.07,0.41-0.19,0.58-0.32c0.18-0.14,0.34-0.31,0.46-0.5c0.09-0.15,0.17-0.31,0.24-0.48
		c0.06-0.16,0.08-0.32,0.11-0.48c0.04-0.24-0.01-0.48-0.06-0.72c-0.03-0.12-0.08-0.24-0.13-0.35c-0.09-0.2-0.21-0.38-0.36-0.54
		c-0.21-0.24-0.46-0.43-0.76-0.53c-0.08-0.03-0.16-0.05-0.24-0.08c-0.1-0.04-0.19-0.06-0.3-0.06c-0.09,0-0.18,0-0.27,0c0,0,0,0,0,0
		c-0.12,0-0.23-0.01-0.35,0c-0.11,0.01-0.22,0.05-0.33,0.09c-0.11,0.04-0.2,0.09-0.31,0.14c-0.22,0.11-0.42,0.26-0.58,0.44
		c-0.07,0.08-0.12,0.17-0.18,0.24c-0.09,0.1-0.14,0.21-0.19,0.33c-0.07,0.16-0.12,0.33-0.15,0.51c-0.03,0.23-0.03,0.45,0,0.67
		C44.84,38.65,44.87,38.73,44.89,38.8z"/>
</g>
</svg>
